<svg width="120" height="30" viewBox="0 0 120 30" fill="none" xmlns="http://www.w3.org/2000/svg">
    <rect width="120" height="30" rx="6" fill="white" />
    <g clip-path="url(#clip0_3_83)">
        <path d="M8.65487 24.3717L6.75 3H27.7035L25.7987 24.3717L17.2035 26.7876" fill="#0C73B8" />
        <path d="M17.25 24.9292L24.1726 23.0243L25.7987 4.71902H17.25" fill="#30A9DC" />
        <path
            d="M17.25 12.6637H11.1173L11.3496 15.312H17.25V12.6637ZM17.25 7.36726H10.6526L10.8849 9.96903H17.25V7.36726ZM17.25 19.4934L11.4889 17.9602L11.8142 20.7478L17.25 22.2345V19.4934Z"
            fill="#ECEDEE" />
        <path
            d="M17.25 15.312H20.4558L20.1305 18.7035L17.25 19.4934V22.2345L22.5929 20.7478L23.8009 7.36726H17.25V9.96903H20.9668L20.6881 12.6637H17.25V15.312Z"
            fill="white" />
    </g>
    <path d="M33.75 0H114C117.314 0 120 2.68629 120 6V24C120 27.3137 117.314 30 114 30H33.75V0Z"
        fill="#0C73B8" />
    <path
        d="M72.9711 13.4347H70.8404C70.812 13.2159 70.7537 13.0185 70.6657 12.8423C70.5776 12.6662 70.4611 12.5156 70.3162 12.3906C70.1713 12.2656 69.9995 12.1705 69.8006 12.1051C69.6046 12.0369 69.3873 12.0028 69.1486 12.0028C68.7253 12.0028 68.3603 12.1065 68.0534 12.3139C67.7495 12.5213 67.5151 12.821 67.3503 13.2131C67.1884 13.6051 67.1074 14.0795 67.1074 14.6364C67.1074 15.2159 67.1898 15.7017 67.3546 16.0938C67.5222 16.483 67.7566 16.777 68.0577 16.9759C68.3617 17.1719 68.7211 17.2699 69.1358 17.2699C69.3688 17.2699 69.5804 17.2401 69.7708 17.1804C69.964 17.1207 70.133 17.0341 70.2779 16.9205C70.4256 16.804 70.5463 16.6634 70.6401 16.4986C70.7367 16.331 70.8034 16.142 70.8404 15.9318L72.9711 15.9446C72.9341 16.331 72.8219 16.7116 72.6344 17.0866C72.4498 17.4616 72.1955 17.804 71.8716 18.1136C71.5478 18.4205 71.1529 18.6648 70.687 18.8466C70.2239 19.0284 69.6926 19.1193 69.0932 19.1193C68.3034 19.1193 67.5961 18.946 66.9711 18.5994C66.3489 18.25 65.8574 17.7415 65.4966 17.0739C65.1358 16.4062 64.9554 15.5937 64.9554 14.6364C64.9554 13.6761 65.1387 12.8622 65.5051 12.1946C65.8716 11.527 66.3674 11.0199 66.9924 10.6733C67.6174 10.3267 68.3176 10.1534 69.0932 10.1534C69.6216 10.1534 70.1103 10.2273 70.5591 10.375C71.008 10.5199 71.4029 10.733 71.7438 11.0142C72.0847 11.2926 72.3617 11.6349 72.5748 12.0412C72.7878 12.4474 72.9199 12.9119 72.9711 13.4347ZM78.8954 12.8892C78.867 12.5767 78.7406 12.3338 78.5162 12.1605C78.2946 11.9844 77.9778 11.8963 77.5659 11.8963C77.2931 11.8963 77.0659 11.9318 76.8841 12.0028C76.7022 12.0739 76.5659 12.1719 76.475 12.2969C76.3841 12.419 76.3372 12.5597 76.3343 12.7188C76.3287 12.8494 76.3542 12.9645 76.411 13.0639C76.4707 13.1634 76.5559 13.2514 76.6667 13.3281C76.7804 13.402 76.9167 13.4673 77.0758 13.5241C77.2349 13.581 77.4139 13.6307 77.6127 13.6733L78.3627 13.8438C78.7946 13.9375 79.1752 14.0625 79.5048 14.2188C79.8372 14.375 80.1156 14.5611 80.34 14.777C80.5673 14.9929 80.7392 15.2415 80.8556 15.5227C80.9721 15.804 81.0318 16.1193 81.0346 16.4688C81.0318 17.0199 80.8926 17.4929 80.617 17.8878C80.3414 18.2827 79.9451 18.5852 79.4281 18.7955C78.9139 19.0057 78.2931 19.1108 77.5659 19.1108C76.8358 19.1108 76.1994 19.0014 75.6568 18.7827C75.1142 18.5639 74.6923 18.2315 74.3912 17.7855C74.09 17.3395 73.9352 16.7756 73.9267 16.0938H75.9466C75.9636 16.375 76.0389 16.6094 76.1724 16.7969C76.3059 16.9844 76.4892 17.1264 76.7221 17.223C76.9579 17.3196 77.2306 17.3679 77.5403 17.3679C77.8244 17.3679 78.0659 17.3295 78.2647 17.2528C78.4664 17.1761 78.6213 17.0696 78.7292 16.9332C78.8372 16.7969 78.8926 16.6406 78.8954 16.4645C78.8926 16.2997 78.8414 16.1591 78.742 16.0426C78.6426 15.9233 78.4892 15.821 78.2818 15.7358C78.0772 15.6477 77.8159 15.5668 77.4977 15.4929L76.5858 15.2798C75.8301 15.1065 75.2349 14.8267 74.8002 14.4403C74.3656 14.0511 74.1497 13.5256 74.1525 12.8636C74.1497 12.3239 74.2946 11.8509 74.5872 11.4446C74.8798 11.0384 75.2846 10.7216 75.8017 10.4943C76.3187 10.267 76.9082 10.1534 77.5701 10.1534C78.2463 10.1534 78.8329 10.2685 79.3301 10.4986C79.8301 10.7259 80.2179 11.0455 80.4934 11.4574C80.769 11.8693 80.9096 12.3466 80.9153 12.8892H78.8954ZM86.8173 12.8892C86.7889 12.5767 86.6625 12.3338 86.438 12.1605C86.2164 11.9844 85.8997 11.8963 85.4877 11.8963C85.215 11.8963 84.9877 11.9318 84.8059 12.0028C84.6241 12.0739 84.4877 12.1719 84.3968 12.2969C84.3059 12.419 84.2591 12.5597 84.2562 12.7188C84.2505 12.8494 84.2761 12.9645 84.3329 13.0639C84.3926 13.1634 84.4778 13.2514 84.5886 13.3281C84.7022 13.402 84.8386 13.4673 84.9977 13.5241C85.1568 13.581 85.3358 13.6307 85.5346 13.6733L86.2846 13.8438C86.7164 13.9375 87.0971 14.0625 87.4267 14.2188C87.7591 14.375 88.0375 14.5611 88.2619 14.777C88.4892 14.9929 88.661 15.2415 88.7775 15.5227C88.894 15.804 88.9537 16.1193 88.9565 16.4688C88.9537 17.0199 88.8145 17.4929 88.5389 17.8878C88.2633 18.2827 87.867 18.5852 87.35 18.7955C86.8358 19.0057 86.215 19.1108 85.4877 19.1108C84.7576 19.1108 84.1213 19.0014 83.5787 18.7827C83.036 18.5639 82.6142 18.2315 82.313 17.7855C82.0119 17.3395 81.8571 16.7756 81.8485 16.0938H83.8684C83.8855 16.375 83.9608 16.6094 84.0943 16.7969C84.2278 16.9844 84.411 17.1264 84.644 17.223C84.8798 17.3196 85.1525 17.3679 85.4622 17.3679C85.7463 17.3679 85.9877 17.3295 86.1866 17.2528C86.3883 17.1761 86.5431 17.0696 86.6511 16.9332C86.7591 16.7969 86.8145 16.6406 86.8173 16.4645C86.8145 16.2997 86.7633 16.1591 86.6639 16.0426C86.5645 15.9233 86.411 15.821 86.2037 15.7358C85.9991 15.6477 85.7377 15.5668 85.4196 15.4929L84.5076 15.2798C83.752 15.1065 83.1568 14.8267 82.7221 14.4403C82.2875 14.0511 82.0716 13.5256 82.0744 12.8636C82.0716 12.3239 82.2164 11.8509 82.5091 11.4446C82.8017 11.0384 83.2065 10.7216 83.7235 10.4943C84.2406 10.267 84.8301 10.1534 85.492 10.1534C86.1681 10.1534 86.7548 10.2685 87.252 10.4986C87.752 10.7259 88.1397 11.0455 88.4153 11.4574C88.6909 11.8693 88.8315 12.3466 88.8372 12.8892H86.8173Z"
        fill="white" />
    <defs>
        <clipPath id="clip0_3_83">
            <rect width="21" height="24.1593" fill="white" transform="translate(6.75 3)" />
        </clipPath>
    </defs>
</svg>