<svg width="160" height="40" viewBox="0 0 160 40" fill="none" xmlns="http://www.w3.org/2000/svg">
    <rect width="160" height="40" rx="6" fill="white" />
    <path d="M11.5398 32.4956L9 4H36.9381L34.3982 32.4956L22.9381 35.7168" fill="#0C73B8" />
    <path d="M23 33.2389L32.2301 30.6991L34.3982 6.29204H23" fill="#30A9DC" />
    <path
        d="M23 16.885H14.823L15.1328 20.4159H23V16.885ZM23 9.82301H14.2036L14.5133 13.292H23V9.82301ZM23 25.9912L15.3186 23.9469L15.7522 27.6637L23 29.646V25.9912Z"
        fill="#ECEDEE" />
    <path
        d="M23 20.4159H27.2743L26.8407 24.9381L23 25.9912V29.646L30.1239 27.6637L31.7345 9.82301H23V13.292H27.9558L27.5841 16.885H23V20.4159Z"
        fill="white" />
    <path d="M45 0H154C157.314 0 160 2.68629 160 6V34C160 37.3137 157.314 40 154 40H45V0Z"
        fill="#0C73B8" />
    <path
        d="M95.4659 17H93.7045C93.6004 16.4934 93.4181 16.0483 93.1577 15.6648C92.902 15.2812 92.5895 14.9593 92.2202 14.6989C91.8556 14.4337 91.4508 14.2348 91.0057 14.1023C90.5606 13.9697 90.0966 13.9034 89.6136 13.9034C88.733 13.9034 87.9351 14.1259 87.2202 14.571C86.5099 15.0161 85.9441 15.6719 85.5227 16.5384C85.1061 17.4048 84.8977 18.4678 84.8977 19.7273C84.8977 20.9867 85.1061 22.0497 85.5227 22.9162C85.9441 23.7827 86.5099 24.4384 87.2202 24.8835C87.9351 25.3286 88.733 25.5511 89.6136 25.5511C90.0966 25.5511 90.5606 25.4848 91.0057 25.3523C91.4508 25.2197 91.8556 25.0232 92.2202 24.7628C92.5895 24.4976 92.902 24.1733 93.1577 23.7898C93.4181 23.4015 93.6004 22.9564 93.7045 22.4545H95.4659C95.3333 23.1979 95.0919 23.8632 94.7415 24.4503C94.3911 25.0374 93.9555 25.5369 93.4347 25.9489C92.9138 26.3561 92.3291 26.6662 91.6804 26.8793C91.0365 27.0923 90.3475 27.1989 89.6136 27.1989C88.3731 27.1989 87.2699 26.8958 86.304 26.2898C85.3381 25.6837 84.5781 24.822 84.0241 23.7045C83.4702 22.5871 83.1932 21.2614 83.1932 19.7273C83.1932 18.1932 83.4702 16.8674 84.0241 15.75C84.5781 14.6326 85.3381 13.7708 86.304 13.1648C87.2699 12.5587 88.3731 12.2557 89.6136 12.2557C90.3475 12.2557 91.0365 12.3622 91.6804 12.5753C92.3291 12.7884 92.9138 13.1009 93.4347 13.5128C93.9555 13.92 94.3911 14.4171 94.7415 15.0043C95.0919 15.5866 95.3333 16.2519 95.4659 17ZM106.267 16.0909C106.181 15.3712 105.836 14.8125 105.23 14.4148C104.624 14.017 103.88 13.8182 103 13.8182C102.356 13.8182 101.792 13.9223 101.309 14.1307C100.831 14.339 100.457 14.6255 100.187 14.9901C99.922 15.3546 99.7894 15.7689 99.7894 16.233C99.7894 16.6212 99.8817 16.955 100.066 17.2344C100.256 17.509 100.497 17.7386 100.791 17.9233C101.084 18.1032 101.392 18.2524 101.714 18.3707C102.036 18.4844 102.332 18.5767 102.602 18.6477L104.079 19.0455C104.458 19.1449 104.879 19.2822 105.343 19.4574C105.812 19.6326 106.26 19.8717 106.686 20.1747C107.117 20.473 107.472 20.8565 107.751 21.3253C108.03 21.794 108.17 22.3693 108.17 23.0511C108.17 23.8371 107.964 24.5473 107.552 25.1818C107.145 25.8163 106.548 26.3205 105.762 26.6946C104.981 27.0687 104.032 27.2557 102.914 27.2557C101.873 27.2557 100.971 27.0876 100.208 26.7514C99.4509 26.4152 98.8543 25.9465 98.4187 25.3452C97.9878 24.7438 97.744 24.0455 97.6871 23.25H99.5053C99.5527 23.7992 99.7373 24.2538 100.059 24.6136C100.386 24.9687 100.798 25.2339 101.295 25.4091C101.797 25.5795 102.337 25.6648 102.914 25.6648C103.587 25.6648 104.19 25.5559 104.725 25.3381C105.261 25.1155 105.684 24.8078 105.997 24.4148C106.309 24.017 106.466 23.553 106.466 23.0227C106.466 22.5398 106.331 22.1468 106.061 21.8438C105.791 21.5407 105.436 21.2945 104.995 21.1051C104.555 20.9157 104.079 20.75 103.568 20.608L101.778 20.0966C100.642 19.7699 99.7421 19.3035 99.0792 18.6974C98.4163 18.0914 98.0849 17.2983 98.0849 16.3182C98.0849 15.5038 98.305 14.7936 98.7454 14.1875C99.1905 13.5767 99.7871 13.1032 100.535 12.767C101.288 12.4261 102.128 12.2557 103.056 12.2557C103.994 12.2557 104.827 12.4238 105.556 12.7599C106.286 13.0914 106.863 13.5459 107.289 14.1236C107.72 14.7012 107.948 15.357 107.971 16.0909H106.267ZM119.021 16.0909C118.935 15.3712 118.59 14.8125 117.984 14.4148C117.378 14.017 116.634 13.8182 115.754 13.8182C115.11 13.8182 114.546 13.9223 114.063 14.1307C113.585 14.339 113.211 14.6255 112.941 14.9901C112.676 15.3546 112.543 15.7689 112.543 16.233C112.543 16.6212 112.636 16.955 112.82 17.2344C113.01 17.509 113.251 17.7386 113.545 17.9233C113.838 18.1032 114.146 18.2524 114.468 18.3707C114.79 18.4844 115.086 18.5767 115.356 18.6477L116.833 19.0455C117.212 19.1449 117.633 19.2822 118.097 19.4574C118.566 19.6326 119.013 19.8717 119.44 20.1747C119.871 20.473 120.226 20.8565 120.505 21.3253C120.784 21.794 120.924 22.3693 120.924 23.0511C120.924 23.8371 120.718 24.5473 120.306 25.1818C119.899 25.8163 119.302 26.3205 118.516 26.6946C117.735 27.0687 116.786 27.2557 115.668 27.2557C114.627 27.2557 113.725 27.0876 112.962 26.7514C112.205 26.4152 111.608 25.9465 111.173 25.3452C110.742 24.7438 110.498 24.0455 110.441 23.25H112.259C112.307 23.7992 112.491 24.2538 112.813 24.6136C113.14 24.9687 113.552 25.2339 114.049 25.4091C114.551 25.5795 115.091 25.6648 115.668 25.6648C116.341 25.6648 116.944 25.5559 117.479 25.3381C118.014 25.1155 118.438 24.8078 118.751 24.4148C119.063 24.017 119.219 23.553 119.219 23.0227C119.219 22.5398 119.085 22.1468 118.815 21.8438C118.545 21.5407 118.19 21.2945 117.749 21.1051C117.309 20.9157 116.833 20.75 116.322 20.608L114.532 20.0966C113.396 19.7699 112.496 19.3035 111.833 18.6974C111.17 18.0914 110.839 17.2983 110.839 16.3182C110.839 15.5038 111.059 14.7936 111.499 14.1875C111.944 13.5767 112.541 13.1032 113.289 12.767C114.042 12.4261 114.882 12.2557 115.81 12.2557C116.748 12.2557 117.581 12.4238 118.31 12.7599C119.04 13.0914 119.617 13.5459 120.043 14.1236C120.474 14.7012 120.701 15.357 120.725 16.0909H119.021Z"
        fill="white" />
</svg>