<svg width="160" height="40" viewBox="0 0 160 40" fill="none" xmlns="http://www.w3.org/2000/svg">
<rect width="160" height="40" rx="6" fill="white"/>
<path d="M94.4659 17H92.7045C92.6004 16.4934 92.4181 16.0483 92.1577 15.6648C91.902 15.2812 91.5895 14.9593 91.2202 14.6989C90.8556 14.4337 90.4508 14.2348 90.0057 14.1023C89.5606 13.9697 89.0966 13.9034 88.6136 13.9034C87.733 13.9034 86.9351 14.1259 86.2202 14.571C85.5099 15.0161 84.9441 15.6719 84.5227 16.5384C84.1061 17.4048 83.8977 18.4678 83.8977 19.7273C83.8977 20.9867 84.1061 22.0497 84.5227 22.9162C84.9441 23.7827 85.5099 24.4384 86.2202 24.8835C86.9351 25.3286 87.733 25.5511 88.6136 25.5511C89.0966 25.5511 89.5606 25.4848 90.0057 25.3523C90.4508 25.2197 90.8556 25.0232 91.2202 24.7628C91.5895 24.4976 91.902 24.1733 92.1577 23.7898C92.4181 23.4015 92.6004 22.9564 92.7045 22.4545H94.4659C94.3333 23.1979 94.0919 23.8632 93.7415 24.4503C93.3911 25.0374 92.9555 25.5369 92.4347 25.9489C91.9138 26.3561 91.3291 26.6662 90.6804 26.8793C90.0365 27.0923 89.3475 27.1989 88.6136 27.1989C87.3731 27.1989 86.2699 26.8958 85.304 26.2898C84.3381 25.6837 83.5781 24.822 83.0241 23.7045C82.4702 22.5871 82.1932 21.2614 82.1932 19.7273C82.1932 18.1932 82.4702 16.8674 83.0241 15.75C83.5781 14.6326 84.3381 13.7708 85.304 13.1648C86.2699 12.5587 87.3731 12.2557 88.6136 12.2557C89.3475 12.2557 90.0365 12.3622 90.6804 12.5753C91.3291 12.7884 91.9138 13.1009 92.4347 13.5128C92.9555 13.92 93.3911 14.4171 93.7415 15.0043C94.0919 15.5866 94.3333 16.2519 94.4659 17ZM105.267 16.0909C105.181 15.3712 104.836 14.8125 104.23 14.4148C103.624 14.017 102.88 13.8182 102 13.8182C101.356 13.8182 100.792 13.9223 100.309 14.1307C99.8311 14.339 99.457 14.6255 99.1871 14.9901C98.922 15.3546 98.7894 15.7689 98.7894 16.233C98.7894 16.6212 98.8817 16.955 99.0664 17.2344C99.2558 17.509 99.4973 17.7386 99.7908 17.9233C100.084 18.1032 100.392 18.2524 100.714 18.3707C101.036 18.4844 101.332 18.5767 101.602 18.6477L103.079 19.0455C103.458 19.1449 103.879 19.2822 104.343 19.4574C104.812 19.6326 105.26 19.8717 105.686 20.1747C106.117 20.473 106.472 20.8565 106.751 21.3253C107.03 21.794 107.17 22.3693 107.17 23.0511C107.17 23.8371 106.964 24.5473 106.552 25.1818C106.145 25.8163 105.548 26.3205 104.762 26.6946C103.981 27.0687 103.032 27.2557 101.914 27.2557C100.873 27.2557 99.9708 27.0876 99.2085 26.7514C98.4509 26.4152 97.8543 25.9465 97.4187 25.3452C96.9878 24.7438 96.744 24.0455 96.6871 23.25H98.5053C98.5527 23.7992 98.7373 24.2538 99.0593 24.6136C99.386 24.9687 99.7979 25.2339 100.295 25.4091C100.797 25.5795 101.337 25.6648 101.914 25.6648C102.587 25.6648 103.19 25.5559 103.725 25.3381C104.261 25.1155 104.684 24.8078 104.997 24.4148C105.309 24.017 105.466 23.553 105.466 23.0227C105.466 22.5398 105.331 22.1468 105.061 21.8438C104.791 21.5407 104.436 21.2945 103.995 21.1051C103.555 20.9157 103.079 20.75 102.568 20.608L100.778 20.0966C99.6417 19.7699 98.7421 19.3035 98.0792 18.6974C97.4163 18.0914 97.0849 17.2983 97.0849 16.3182C97.0849 15.5038 97.305 14.7936 97.7454 14.1875C98.1905 13.5767 98.7871 13.1032 99.5352 12.767C100.288 12.4261 101.128 12.2557 102.056 12.2557C102.994 12.2557 103.827 12.4238 104.556 12.7599C105.286 13.0914 105.863 13.5459 106.289 14.1236C106.72 14.7012 106.948 15.357 106.971 16.0909H105.267ZM118.021 16.0909C117.935 15.3712 117.59 14.8125 116.984 14.4148C116.378 14.017 115.634 13.8182 114.754 13.8182C114.11 13.8182 113.546 13.9223 113.063 14.1307C112.585 14.339 112.211 14.6255 111.941 14.9901C111.676 15.3546 111.543 15.7689 111.543 16.233C111.543 16.6212 111.636 16.955 111.82 17.2344C112.01 17.509 112.251 17.7386 112.545 17.9233C112.838 18.1032 113.146 18.2524 113.468 18.3707C113.79 18.4844 114.086 18.5767 114.356 18.6477L115.833 19.0455C116.212 19.1449 116.633 19.2822 117.097 19.4574C117.566 19.6326 118.013 19.8717 118.44 20.1747C118.871 20.473 119.226 20.8565 119.505 21.3253C119.784 21.794 119.924 22.3693 119.924 23.0511C119.924 23.8371 119.718 24.5473 119.306 25.1818C118.899 25.8163 118.302 26.3205 117.516 26.6946C116.735 27.0687 115.786 27.2557 114.668 27.2557C113.627 27.2557 112.725 27.0876 111.962 26.7514C111.205 26.4152 110.608 25.9465 110.173 25.3452C109.742 24.7438 109.498 24.0455 109.441 23.25H111.259C111.307 23.7992 111.491 24.2538 111.813 24.6136C112.14 24.9687 112.552 25.2339 113.049 25.4091C113.551 25.5795 114.091 25.6648 114.668 25.6648C115.341 25.6648 115.944 25.5559 116.479 25.3381C117.014 25.1155 117.438 24.8078 117.751 24.4148C118.063 24.017 118.219 23.553 118.219 23.0227C118.219 22.5398 118.085 22.1468 117.815 21.8438C117.545 21.5407 117.19 21.2945 116.749 21.1051C116.309 20.9157 115.833 20.75 115.322 20.608L113.532 20.0966C112.396 19.7699 111.496 19.3035 110.833 18.6974C110.17 18.0914 109.839 17.2983 109.839 16.3182C109.839 15.5038 110.059 14.7936 110.499 14.1875C110.944 13.5767 111.541 13.1032 112.289 12.767C113.042 12.4261 113.882 12.2557 114.81 12.2557C115.748 12.2557 116.581 12.4238 117.31 12.7599C118.04 13.0914 118.617 13.5459 119.043 14.1236C119.474 14.7012 119.701 15.357 119.725 16.0909H118.021Z" fill="black" fill-opacity="0.533333"/>
<path d="M11.5398 32.4956L9 4H36.9381L34.3982 32.4956L22.9381 35.7168" fill="#0C73B8"/>
<path d="M23 33.2389L32.2301 30.6991L34.3982 6.29204H23" fill="#30A9DC"/>
<path d="M23 16.885H14.823L15.1328 20.4159H23V16.885ZM23 9.82301H14.2036L14.5133 13.292H23V9.82301ZM23 25.9912L15.3186 23.9469L15.7522 27.6637L23 29.646V25.9912Z" fill="#ECEDEE"/>
<path d="M23 20.4159H27.2743L26.8407 24.9381L23 25.9912V29.646L30.1239 27.6637L31.7345 9.82301H23V13.292H27.9558L27.5841 16.885H23V20.4159Z" fill="white"/>
</svg>
