<svg width="120" height="30" viewBox="0 0 120 30" fill="none" xmlns="http://www.w3.org/2000/svg">
    <rect width="120" height="30" rx="6" fill="white" />
    <path d="M33.75 0H114C117.314 0 120 2.68629 120 6V24C120 27.3137 117.314 30 114 30H33.75V0Z"
        fill="#008FE2" />
    <path
        d="M54.8161 19H51.5902V10.2727H54.8118C55.701 10.2727 56.4666 10.4474 57.1087 10.7969C57.7536 11.1435 58.2507 11.6435 58.6001 12.2969C58.9496 12.9474 59.1243 13.7259 59.1243 14.6321C59.1243 15.5412 58.9496 16.3224 58.6001 16.9759C58.2536 17.6293 57.7578 18.1307 57.1129 18.4801C56.468 18.8267 55.7024 19 54.8161 19ZM53.6996 17.2017H54.7351C55.2237 17.2017 55.6371 17.1193 55.9751 16.9545C56.3161 16.7869 56.5732 16.5156 56.7464 16.1406C56.9226 15.7628 57.0107 15.2599 57.0107 14.6321C57.0107 14.0043 56.9226 13.5043 56.7464 13.1321C56.5703 12.7571 56.3104 12.4872 55.9666 12.3224C55.6257 12.1548 55.2053 12.071 54.7053 12.071H53.6996V17.2017ZM68.593 14.6364C68.593 15.5966 68.4084 16.4105 68.0391 17.0781C67.6697 17.7457 67.1697 18.2528 66.5391 18.5994C65.9112 18.946 65.2067 19.1193 64.4254 19.1193C63.6413 19.1193 62.9354 18.9446 62.3075 18.5952C61.6797 18.2457 61.1811 17.7386 60.8118 17.0739C60.4453 16.4062 60.2621 15.5937 60.2621 14.6364C60.2621 13.6761 60.4453 12.8622 60.8118 12.1946C61.1811 11.527 61.6797 11.0199 62.3075 10.6733C62.9354 10.3267 63.6413 10.1534 64.4254 10.1534C65.2067 10.1534 65.9112 10.3267 66.5391 10.6733C67.1697 11.0199 67.6697 11.527 68.0391 12.1946C68.4084 12.8622 68.593 13.6761 68.593 14.6364ZM66.4368 14.6364C66.4368 14.0682 66.3558 13.5881 66.1939 13.196C66.0348 12.804 65.8047 12.5071 65.5036 12.3054C65.2053 12.1037 64.8459 12.0028 64.4254 12.0028C64.0078 12.0028 63.6484 12.1037 63.3473 12.3054C63.0462 12.5071 62.8146 12.804 62.6527 13.196C62.4936 13.5881 62.4141 14.0682 62.4141 14.6364C62.4141 15.2045 62.4936 15.6847 62.6527 16.0767C62.8146 16.4687 63.0462 16.7656 63.3473 16.9673C63.6484 17.169 64.0078 17.2699 64.4254 17.2699C64.8459 17.2699 65.2053 17.169 65.5036 16.9673C65.8047 16.7656 66.0348 16.4687 66.1939 16.0767C66.3558 15.6847 66.4368 15.2045 66.4368 14.6364ZM77.7464 13.4347H75.6158C75.5874 13.2159 75.5291 13.0185 75.4411 12.8423C75.353 12.6662 75.2365 12.5156 75.0916 12.3906C74.9467 12.2656 74.7749 12.1705 74.576 12.1051C74.38 12.0369 74.1626 12.0028 73.924 12.0028C73.5007 12.0028 73.1357 12.1065 72.8288 12.3139C72.5249 12.5213 72.2905 12.821 72.1257 13.2131C71.9638 13.6051 71.8828 14.0795 71.8828 14.6364C71.8828 15.2159 71.9652 15.7017 72.13 16.0938C72.2976 16.483 72.532 16.777 72.8331 16.9759C73.1371 17.1719 73.4964 17.2699 73.9112 17.2699C74.1442 17.2699 74.3558 17.2401 74.5462 17.1804C74.7393 17.1207 74.9084 17.0341 75.0533 16.9205C75.201 16.804 75.3217 16.6634 75.4155 16.4986C75.5121 16.331 75.5788 16.142 75.6158 15.9318L77.7464 15.9446C77.7095 16.331 77.5973 16.7116 77.4098 17.0866C77.2251 17.4616 76.9709 17.804 76.647 18.1136C76.3232 18.4205 75.9283 18.6648 75.4624 18.8466C74.9993 19.0284 74.468 19.1193 73.8686 19.1193C73.0788 19.1193 72.3714 18.946 71.7464 18.5994C71.1243 18.25 70.6328 17.7415 70.272 17.0739C69.9112 16.4062 69.7308 15.5937 69.7308 14.6364C69.7308 13.6761 69.9141 12.8622 70.2805 12.1946C70.647 11.527 71.1428 11.0199 71.7678 10.6733C72.3928 10.3267 73.093 10.1534 73.8686 10.1534C74.397 10.1534 74.8857 10.2273 75.3345 10.375C75.7834 10.5199 76.1783 10.733 76.5192 11.0142C76.8601 11.2926 77.1371 11.6349 77.3501 12.0412C77.5632 12.4474 77.6953 12.9119 77.7464 13.4347ZM78.9535 19V10.2727H81.0629V13.9631H81.1779L84.0629 10.2727H86.5472L83.4535 14.1676L86.6026 19H84.0799L81.9066 15.5696L81.0629 16.6349V19H78.9535ZM87.3793 19V10.2727H93.4645V11.9858H89.4886V13.7756H93.1534V15.4929H89.4886V17.2869H93.4645V19H87.3793ZM94.7855 19V10.2727H98.3906C99.044 10.2727 99.608 10.3906 100.082 10.6264C100.56 10.8594 100.928 11.1946 101.186 11.6321C101.445 12.0668 101.574 12.5824 101.574 13.179C101.574 13.7841 101.442 14.2983 101.178 14.7216C100.913 15.142 100.538 15.4631 100.053 15.6847C99.5668 15.9034 98.9915 16.0128 98.3267 16.0128H96.0469V14.3509H97.9347C98.2528 14.3509 98.5185 14.3097 98.7315 14.2273C98.9474 14.142 99.1108 14.0142 99.2216 13.8438C99.3324 13.6705 99.3878 13.4489 99.3878 13.179C99.3878 12.9091 99.3324 12.6861 99.2216 12.5099C99.1108 12.331 98.9474 12.1974 98.7315 12.1094C98.5156 12.0185 98.25 11.973 97.9347 11.973H96.8949V19H94.7855ZM99.6989 15.0114L101.872 19H99.571L97.4403 15.0114H99.6989Z"
        fill="white" />
    <g clip-path="url(#clip0_5_3)">
        <path
            d="M18.735 14.31H20.325C20.3437 14.31 20.3622 14.3063 20.3795 14.2992C20.3968 14.292 20.4125 14.2815 20.4258 14.2683C20.439 14.255 20.4495 14.2393 20.4566 14.222C20.4638 14.2047 20.4675 14.1862 20.4675 14.1675V12.7575C20.4675 12.7388 20.4638 12.7203 20.4566 12.703C20.4495 12.6857 20.439 12.67 20.4258 12.6567C20.4125 12.6435 20.3968 12.633 20.3795 12.6259C20.3622 12.6187 20.3437 12.615 20.325 12.615H18.735C18.6992 12.615 18.6649 12.6292 18.6395 12.6545C18.6142 12.6799 18.6 12.7142 18.6 12.75V14.175C18.6 14.25 18.66 14.31 18.735 14.31ZM16.5225 10.2375H18.1125C18.149 10.2356 18.1833 10.2197 18.2084 10.1932C18.2336 10.1667 18.2475 10.1315 18.2475 10.095V8.67751C18.2457 8.64229 18.2309 8.60899 18.2059 8.58406C18.181 8.55912 18.1477 8.54432 18.1125 8.54251H16.5225C16.5041 8.54148 16.4858 8.54422 16.4685 8.55055C16.4513 8.55687 16.4355 8.56665 16.4221 8.57929C16.4088 8.59193 16.3982 8.60716 16.3909 8.62405C16.3837 8.64094 16.38 8.65913 16.38 8.67751V10.1025C16.38 10.1775 16.4475 10.2375 16.5225 10.2375ZM16.5225 12.27H18.1125C18.1477 12.2682 18.181 12.2534 18.2059 12.2285C18.2309 12.2035 18.2457 12.1702 18.2475 12.135V10.7175C18.2457 10.6823 18.2309 10.649 18.2059 10.6241C18.181 10.5991 18.1477 10.5843 18.1125 10.5825H16.5225C16.5041 10.5815 16.4858 10.5842 16.4685 10.5905C16.4513 10.5969 16.4355 10.6067 16.4221 10.6193C16.4088 10.6319 16.3982 10.6472 16.3909 10.6641C16.3837 10.6809 16.38 10.6991 16.38 10.7175V12.135C16.38 12.21 16.4475 12.27 16.5225 12.27ZM14.325 12.27H15.915C15.9502 12.2682 15.9835 12.2534 16.0084 12.2285C16.0334 12.2035 16.0482 12.1702 16.05 12.135V10.7175C16.05 10.6817 16.0358 10.6474 16.0105 10.622C15.9851 10.5967 15.9508 10.5825 15.915 10.5825H14.325C14.2892 10.5825 14.2549 10.5967 14.2295 10.622C14.2042 10.6474 14.19 10.6817 14.19 10.7175V12.135C14.19 12.21 14.25 12.27 14.325 12.27ZM12.105 12.27H13.6875C13.724 12.2701 13.7592 12.2561 13.7857 12.231C13.8122 12.2058 13.8281 12.1715 13.83 12.135V10.7175C13.83 10.6991 13.8263 10.6809 13.819 10.6641C13.8118 10.6472 13.8012 10.6319 13.7878 10.6193C13.7745 10.6067 13.7587 10.5969 13.7415 10.5905C13.7242 10.5842 13.7058 10.5815 13.6875 10.5825H12.105C12.0685 10.5825 12.0333 10.5964 12.0068 10.6216C11.9803 10.6467 11.9644 10.681 11.9625 10.7175V12.135C11.9625 12.21 12.0225 12.27 12.105 12.27ZM16.5225 14.31H18.1125C18.149 14.3081 18.1833 14.2922 18.2084 14.2657C18.2336 14.2392 18.2475 14.204 18.2475 14.1675V12.7575C18.2475 12.721 18.2336 12.6858 18.2084 12.6593C18.1833 12.6328 18.149 12.6169 18.1125 12.615H16.5225C16.5041 12.614 16.4858 12.6167 16.4685 12.623C16.4513 12.6294 16.4355 12.6392 16.4221 12.6518C16.4088 12.6644 16.3982 12.6797 16.3909 12.6966C16.3837 12.7134 16.38 12.7316 16.38 12.75V14.175C16.38 14.25 16.4475 14.31 16.5225 14.31ZM14.325 14.31H15.915C15.9334 14.31 15.9516 14.3063 15.9684 14.2991C15.9853 14.2918 16.0006 14.2812 16.0132 14.2679C16.0258 14.2545 16.0356 14.2387 16.042 14.2215C16.0483 14.2042 16.051 14.1859 16.05 14.1675V12.7575C16.051 12.7392 16.0483 12.7208 16.042 12.7035C16.0356 12.6863 16.0258 12.6705 16.0132 12.6572C16.0006 12.6438 15.9853 12.6332 15.9684 12.626C15.9516 12.6187 15.9334 12.615 15.915 12.615H14.325C14.2892 12.615 14.2549 12.6292 14.2295 12.6545C14.2042 12.6799 14.19 12.7142 14.19 12.75V14.175C14.19 14.25 14.25 14.31 14.325 14.31ZM12.105 14.31H13.6875C13.7065 14.3111 13.7255 14.3082 13.7433 14.3014C13.7611 14.2946 13.7772 14.2841 13.7907 14.2707C13.8041 14.2572 13.8146 14.2411 13.8214 14.2233C13.8281 14.2055 13.8311 14.1865 13.83 14.1675V12.7575C13.831 12.7392 13.8283 12.7208 13.822 12.7035C13.8156 12.6863 13.8058 12.6705 13.7932 12.6572C13.7806 12.6438 13.7653 12.6332 13.7484 12.626C13.7316 12.6187 13.7134 12.615 13.695 12.615H12.105C12.0672 12.615 12.031 12.63 12.0042 12.6567C11.9775 12.6835 11.9625 12.7197 11.9625 12.7575V14.1675C11.9625 14.2425 12.0225 14.31 12.105 14.31ZM9.91499 14.31H11.505C11.5234 14.31 11.5416 14.3063 11.5584 14.2991C11.5753 14.2918 11.5906 14.2812 11.6032 14.2679C11.6158 14.2545 11.6256 14.2387 11.632 14.2215C11.6383 14.2042 11.641 14.1859 11.64 14.1675V12.7575C11.641 12.7392 11.6383 12.7208 11.632 12.7035C11.6256 12.6863 11.6158 12.6705 11.6032 12.6572C11.5906 12.6438 11.5753 12.6332 11.5584 12.626C11.5416 12.6187 11.5234 12.615 11.505 12.615H9.91499C9.89664 12.614 9.87828 12.6167 9.86103 12.623C9.84377 12.6294 9.82799 12.6392 9.81465 12.6518C9.80131 12.6644 9.79069 12.6797 9.78344 12.6966C9.77619 12.7134 9.77247 12.7316 9.77249 12.75V14.175C9.77249 14.25 9.83249 14.31 9.91499 14.31ZM26.07 13.4175C26.025 13.38 25.5675 13.035 24.6075 13.035C24.3525 13.035 24.0975 13.0575 23.85 13.1025C23.7835 12.7083 23.6341 12.3327 23.4117 12.0004C23.1894 11.6681 22.8991 11.3868 22.56 11.175L22.305 11.025L22.1325 11.2725C21.9229 11.602 21.7707 11.9646 21.6825 12.345C21.5025 13.0725 21.6075 13.755 21.9825 14.34C21.5694 14.5286 21.1237 14.6355 20.67 14.655H8.81999C8.7455 14.654 8.67154 14.6678 8.60243 14.6957C8.53332 14.7235 8.47042 14.7648 8.41739 14.8171C8.36436 14.8694 8.32225 14.9318 8.29352 15.0005C8.26478 15.0692 8.24999 15.143 8.24999 15.2175C8.23828 16.256 8.41619 17.2879 8.77499 18.2625C9.09635 19.2219 9.73013 20.0458 10.575 20.6025C11.46 21.15 12.9 21.4575 14.535 21.4575C15.27 21.4575 16.005 21.3975 16.7325 21.2625C17.7393 21.0746 18.7077 20.7198 19.5975 20.2125C20.3317 19.7888 20.9927 19.2494 21.555 18.615C22.4925 17.55 23.055 16.365 23.4675 15.315H23.64C24.6675 15.315 25.2975 14.9025 25.65 14.565C25.875 14.34 26.0625 14.07 26.175 13.77L26.25 13.56L26.07 13.4175Z"
            fill="#008FE2" />
    </g>
    <defs>
        <clipPath id="clip0_5_3">
            <rect width="18" height="18" fill="white" transform="translate(8.25 6)" />
        </clipPath>
    </defs>
</svg>
    