<svg width="160" height="40" viewBox="0 0 160 40" fill="none" xmlns="http://www.w3.org/2000/svg">
    <rect width="160" height="40" rx="6" fill="white" />
    <path d="M45 0H154C157.314 0 160 2.68629 160 6V34C160 37.3137 157.314 40 154 40H45V0Z"
        fill="#008FE2" />
    <path
        d="M67.25 27H62.7614V12.4545H67.4489C68.8598 12.4545 70.0672 12.7457 71.071 13.3281C72.0748 13.9058 72.8442 14.7367 73.3793 15.821C73.9143 16.9006 74.1818 18.1932 74.1818 19.6989C74.1818 21.214 73.9119 22.5185 73.3722 23.6122C72.8324 24.7012 72.0464 25.5393 71.0142 26.1264C69.982 26.7088 68.7273 27 67.25 27ZM64.5227 25.4375H67.1364C68.339 25.4375 69.3357 25.2055 70.1264 24.7415C70.9171 24.2775 71.5066 23.617 71.8949 22.7599C72.2831 21.9029 72.4773 20.8826 72.4773 19.6989C72.4773 18.5246 72.2855 17.5137 71.902 16.6662C71.5185 15.8139 70.9455 15.1605 70.1832 14.706C69.4209 14.2467 68.4716 14.017 67.3352 14.017H64.5227V25.4375ZM89.4091 19.7273C89.4091 21.2614 89.1321 22.5871 88.5781 23.7045C88.0241 24.822 87.2642 25.6837 86.2983 26.2898C85.3324 26.8958 84.2292 27.1989 82.9886 27.1989C81.7481 27.1989 80.6449 26.8958 79.679 26.2898C78.7131 25.6837 77.9531 24.822 77.3991 23.7045C76.8452 22.5871 76.5682 21.2614 76.5682 19.7273C76.5682 18.1932 76.8452 16.8674 77.3991 15.75C77.9531 14.6326 78.7131 13.7708 79.679 13.1648C80.6449 12.5587 81.7481 12.2557 82.9886 12.2557C84.2292 12.2557 85.3324 12.5587 86.2983 13.1648C87.2642 13.7708 88.0241 14.6326 88.5781 15.75C89.1321 16.8674 89.4091 18.1932 89.4091 19.7273ZM87.7045 19.7273C87.7045 18.4678 87.4938 17.4048 87.0724 16.5384C86.6558 15.6719 86.09 15.0161 85.375 14.571C84.6648 14.1259 83.8693 13.9034 82.9886 13.9034C82.108 13.9034 81.3101 14.1259 80.5952 14.571C79.8849 15.0161 79.3191 15.6719 78.8977 16.5384C78.4811 17.4048 78.2727 18.4678 78.2727 19.7273C78.2727 20.9867 78.4811 22.0497 78.8977 22.9162C79.3191 23.7827 79.8849 24.4384 80.5952 24.8835C81.3101 25.3286 82.108 25.5511 82.9886 25.5511C83.8693 25.5511 84.6648 25.3286 85.375 24.8835C86.09 24.4384 86.6558 23.7827 87.0724 22.9162C87.4938 22.0497 87.7045 20.9867 87.7045 19.7273ZM104.075 17H102.314C102.21 16.4934 102.027 16.0483 101.767 15.6648C101.511 15.2812 101.199 14.9593 100.83 14.6989C100.465 14.4337 100.06 14.2348 99.6151 14.1023C99.17 13.9697 98.706 13.9034 98.223 13.9034C97.3423 13.9034 96.5445 14.1259 95.8295 14.571C95.1193 15.0161 94.5535 15.6719 94.1321 16.5384C93.7154 17.4048 93.5071 18.4678 93.5071 19.7273C93.5071 20.9867 93.7154 22.0497 94.1321 22.9162C94.5535 23.7827 95.1193 24.4384 95.8295 24.8835C96.5445 25.3286 97.3423 25.5511 98.223 25.5511C98.706 25.5511 99.17 25.4848 99.6151 25.3523C100.06 25.2197 100.465 25.0232 100.83 24.7628C101.199 24.4976 101.511 24.1733 101.767 23.7898C102.027 23.4015 102.21 22.9564 102.314 22.4545H104.075C103.943 23.1979 103.701 23.8632 103.351 24.4503C103 25.0374 102.565 25.5369 102.044 25.9489C101.523 26.3561 100.938 26.6662 100.29 26.8793C99.6458 27.0923 98.9569 27.1989 98.223 27.1989C96.9825 27.1989 95.8793 26.8958 94.9134 26.2898C93.9474 25.6837 93.1875 24.822 92.6335 23.7045C92.0795 22.5871 91.8026 21.2614 91.8026 19.7273C91.8026 18.1932 92.0795 16.8674 92.6335 15.75C93.1875 14.6326 93.9474 13.7708 94.9134 13.1648C95.8793 12.5587 96.9825 12.2557 98.223 12.2557C98.9569 12.2557 99.6458 12.3622 100.29 12.5753C100.938 12.7884 101.523 13.1009 102.044 13.5128C102.565 13.92 103 14.4171 103.351 15.0043C103.701 15.5866 103.943 16.2519 104.075 17ZM106.922 27V12.4545H108.683V19.6705H108.853L115.387 12.4545H117.689L111.581 19.017L117.689 27H115.558L110.501 20.2386L108.683 22.2841V27H106.922ZM119.968 27V12.4545H128.747V14.017H121.73V18.9318H128.292V20.4943H121.73V25.4375H128.86V27H119.968ZM131.922 27V12.4545H136.836C137.973 12.4545 138.905 12.6487 139.635 13.0369C140.364 13.4205 140.904 13.9484 141.254 14.6207C141.604 15.2931 141.779 16.0578 141.779 16.9148C141.779 17.7718 141.604 18.5317 141.254 19.1946C140.904 19.8575 140.366 20.3783 139.642 20.7571C138.917 21.1312 137.992 21.3182 136.865 21.3182H132.887V19.7273H136.808C137.584 19.7273 138.209 19.6136 138.683 19.3864C139.161 19.1591 139.507 18.8371 139.72 18.4205C139.938 17.9991 140.047 17.4972 140.047 16.9148C140.047 16.3324 139.938 15.8234 139.72 15.3878C139.502 14.9522 139.154 14.616 138.676 14.3793C138.198 14.1378 137.565 14.017 136.779 14.017H133.683V27H131.922ZM138.768 20.4659L142.348 27H140.302L136.779 20.4659H138.768Z"
        fill="white" />
    <g clip-path="url(#clip0_0_1)">
        <path
            d="M24.98 19.08H27.1C27.1249 19.08 27.1497 19.0751 27.1727 19.0655C27.1958 19.056 27.2167 19.042 27.2343 19.0244C27.252 19.0067 27.266 18.9858 27.2755 18.9627C27.2851 18.9397 27.29 18.915 27.29 18.89V17.01C27.29 16.9851 27.2851 16.9603 27.2755 16.9373C27.266 16.9142 27.252 16.8933 27.2343 16.8757C27.2167 16.858 27.1958 16.844 27.1727 16.8345C27.1497 16.8249 27.1249 16.82 27.1 16.82H24.98C24.9323 16.82 24.8865 16.839 24.8527 16.8727C24.819 16.9065 24.8 16.9523 24.8 17V18.9C24.8 19 24.88 19.08 24.98 19.08ZM22.03 13.65H24.15C24.1986 13.6474 24.2444 13.6263 24.2779 13.5909C24.3114 13.5556 24.3301 13.5087 24.33 13.46V11.57C24.3276 11.523 24.3078 11.4786 24.2746 11.4454C24.2413 11.4122 24.1969 11.3924 24.15 11.39H22.03C22.0055 11.3886 21.981 11.3923 21.958 11.4007C21.935 11.4092 21.914 11.4222 21.8962 11.4391C21.8784 11.4559 21.8642 11.4762 21.8546 11.4987C21.8449 11.5212 21.84 11.5455 21.84 11.57V13.47C21.84 13.57 21.93 13.65 22.03 13.65ZM22.03 16.36H24.15C24.1969 16.3576 24.2413 16.3379 24.2746 16.3046C24.3078 16.2714 24.3276 16.227 24.33 16.18V14.29C24.3276 14.243 24.3078 14.1987 24.2746 14.1654C24.2413 14.1322 24.1969 14.1124 24.15 14.11H22.03C22.0055 14.1086 21.981 14.1123 21.958 14.1207C21.935 14.1292 21.914 14.1422 21.8962 14.1591C21.8784 14.1759 21.8642 14.1962 21.8546 14.2187C21.8449 14.2412 21.84 14.2655 21.84 14.29V16.18C21.84 16.28 21.93 16.36 22.03 16.36ZM19.1 16.36H21.22C21.267 16.3576 21.3113 16.3379 21.3446 16.3046C21.3778 16.2714 21.3976 16.227 21.4 16.18V14.29C21.4 14.2423 21.381 14.1965 21.3473 14.1627C21.3135 14.129 21.2677 14.11 21.22 14.11H19.1C19.0523 14.11 19.0065 14.129 18.9727 14.1627C18.939 14.1965 18.92 14.2423 18.92 14.29V16.18C18.92 16.28 19 16.36 19.1 16.36ZM16.14 16.36H18.25C18.2987 16.3601 18.3456 16.3414 18.3809 16.3079C18.4163 16.2744 18.4374 16.2286 18.44 16.18V14.29C18.44 14.2655 18.4351 14.2412 18.4254 14.2187C18.4157 14.1962 18.4016 14.1759 18.3838 14.1591C18.366 14.1422 18.345 14.1292 18.3219 14.1207C18.2989 14.1123 18.2745 14.1086 18.25 14.11H16.14C16.0913 14.1099 16.0444 14.1286 16.0091 14.1621C15.9737 14.1956 15.9526 14.2414 15.95 14.29V16.18C15.95 16.28 16.03 16.36 16.14 16.36ZM22.03 19.08H24.15C24.1986 19.0774 24.2444 19.0563 24.2779 19.0209C24.3114 18.9856 24.3301 18.9387 24.33 18.89V17.01C24.3301 16.9613 24.3114 16.9144 24.2779 16.8791C24.2444 16.8437 24.1986 16.8226 24.15 16.82H22.03C22.0055 16.8186 21.981 16.8223 21.958 16.8307C21.935 16.8392 21.914 16.8522 21.8962 16.8691C21.8784 16.8859 21.8642 16.9062 21.8546 16.9287C21.8449 16.9512 21.84 16.9755 21.84 17V18.9C21.84 19 21.93 19.08 22.03 19.08ZM19.1 19.08H21.22C21.2445 19.08 21.2687 19.0751 21.2913 19.0654C21.3138 19.0557 21.3341 19.0416 21.3509 19.0238C21.3678 19.006 21.3808 18.985 21.3893 18.962C21.3977 18.939 21.4014 18.9145 21.4 18.89V17.01C21.4014 16.9855 21.3977 16.9611 21.3893 16.938C21.3808 16.915 21.3678 16.894 21.3509 16.8762C21.3341 16.8584 21.3138 16.8443 21.2913 16.8346C21.2687 16.8249 21.2445 16.82 21.22 16.82H19.1C19.0523 16.82 19.0065 16.839 18.9727 16.8727C18.939 16.9065 18.92 16.9523 18.92 17V18.9C18.92 19 19 19.08 19.1 19.08ZM16.14 19.08H18.25C18.2753 19.0815 18.3007 19.0775 18.3244 19.0685C18.3481 19.0595 18.3696 19.0455 18.3876 19.0276C18.4055 19.0096 18.4195 18.9881 18.4285 18.9644C18.4375 18.9407 18.4414 18.9153 18.44 18.89V17.01C18.4414 16.9855 18.4377 16.9611 18.4293 16.938C18.4208 16.915 18.4078 16.894 18.3909 16.8762C18.3741 16.8584 18.3538 16.8443 18.3313 16.8346C18.3087 16.8249 18.2845 16.82 18.26 16.82H16.14C16.0896 16.82 16.0413 16.84 16.0056 16.8757C15.97 16.9113 15.95 16.9596 15.95 17.01V18.89C15.95 18.99 16.03 19.08 16.14 19.08ZM13.22 19.08H15.34C15.3645 19.08 15.3887 19.0751 15.4113 19.0654C15.4338 19.0557 15.4541 19.0416 15.4709 19.0238C15.4878 19.006 15.5008 18.985 15.5093 18.962C15.5177 18.939 15.5214 18.9145 15.52 18.89V17.01C15.5214 16.9855 15.5177 16.9611 15.5093 16.938C15.5008 16.915 15.4878 16.894 15.4709 16.8762C15.4541 16.8584 15.4338 16.8443 15.4113 16.8346C15.3887 16.8249 15.3645 16.82 15.34 16.82H13.22C13.1955 16.8186 13.171 16.8223 13.148 16.8307C13.125 16.8392 13.104 16.8522 13.0862 16.8691C13.0684 16.8859 13.0542 16.9062 13.0446 16.9287C13.0349 16.9512 13.03 16.9755 13.03 17V18.9C13.03 19 13.11 19.08 13.22 19.08ZM34.76 17.89C34.7 17.84 34.09 17.38 32.81 17.38C32.47 17.38 32.13 17.41 31.8 17.47C31.7113 16.9444 31.5121 16.4435 31.2156 16.0005C30.9191 15.5575 30.5321 15.1824 30.08 14.9L29.74 14.7L29.51 15.03C29.2305 15.4693 29.0276 15.9528 28.91 16.46C28.67 17.43 28.81 18.34 29.31 19.12C28.7592 19.3714 28.1649 19.514 27.56 19.54H11.76C11.6607 19.5387 11.5621 19.5571 11.4699 19.5942C11.3778 19.6313 11.2939 19.6863 11.2232 19.7561C11.1525 19.8259 11.0963 19.909 11.058 20.0007C11.0197 20.0923 11 20.1907 11 20.29C10.9844 21.6747 11.2216 23.0505 11.7 24.35C12.1285 25.6292 12.9735 26.7277 14.1 27.47C15.28 28.2 17.2 28.61 19.38 28.61C20.36 28.61 21.34 28.53 22.31 28.35C23.6525 28.0995 24.9436 27.6263 26.13 26.95C27.109 26.3851 27.9903 25.6659 28.74 24.82C29.99 23.4 30.74 21.82 31.29 20.42H31.52C32.89 20.42 33.73 19.87 34.2 19.42C34.5 19.12 34.75 18.76 34.9 18.36L35 18.08L34.76 17.89Z"
            fill="#008FE2" />
    </g>
    <defs>
        <clipPath id="clip0_0_1">
            <rect width="24" height="24" fill="white" transform="translate(11 8)" />
        </clipPath>
    </defs>
</svg>
    