<svg width="160" height="40" viewBox="0 0 160 40" fill="none" xmlns="http://www.w3.org/2000/svg">
    <rect width="160" height="40" rx="6" fill="white" />
    <path d="M45 0H154C157.314 0 160 2.68629 160 6V34C160 37.3137 157.314 40 154 40H45V0Z"
        fill="#DE4C36" />
    <path
        d="M97.7045 17C97.5483 16.5218 97.3423 16.0933 97.0866 15.7145C96.8357 15.331 96.535 15.0043 96.1847 14.7344C95.839 14.4645 95.446 14.2585 95.0057 14.1165C94.5653 13.9744 94.0824 13.9034 93.5568 13.9034C92.6951 13.9034 91.9115 14.1259 91.206 14.571C90.5005 15.0161 89.9394 15.6719 89.5227 16.5384C89.1061 17.4048 88.8977 18.4678 88.8977 19.7273C88.8977 20.9867 89.1084 22.0497 89.5298 22.9162C89.9512 23.7827 90.5218 24.4384 91.2415 24.8835C91.9612 25.3286 92.7708 25.5511 93.6705 25.5511C94.5038 25.5511 95.2377 25.3736 95.8722 25.0185C96.5114 24.6586 97.0085 24.152 97.3636 23.4986C97.7235 22.8404 97.9034 22.0663 97.9034 21.1761L98.4432 21.2898H94.0682V19.7273H99.608V21.2898C99.608 22.4877 99.3523 23.5294 98.8409 24.4148C98.3343 25.3002 97.6335 25.9867 96.7386 26.4744C95.8485 26.9574 94.8258 27.1989 93.6705 27.1989C92.3826 27.1989 91.2509 26.8958 90.2756 26.2898C89.3049 25.6837 88.5473 24.822 88.0028 23.7045C87.4631 22.5871 87.1932 21.2614 87.1932 19.7273C87.1932 18.5767 87.3471 17.5421 87.6548 16.6236C87.9673 15.7003 88.4077 14.9143 88.9759 14.2656C89.544 13.617 90.2164 13.1198 90.9929 12.7741C91.7694 12.4285 92.6241 12.2557 93.5568 12.2557C94.3239 12.2557 95.0388 12.3717 95.7017 12.6037C96.3693 12.831 96.9635 13.1553 97.4844 13.5767C98.0099 13.9934 98.4479 14.4929 98.7983 15.0753C99.1487 15.6529 99.3902 16.2945 99.5227 17H97.7045ZM104.386 12.4545V27H102.625V12.4545H104.386ZM107.122 14.017V12.4545H118.031V14.017H113.457V27H111.696V14.017H107.122Z"
        fill="white" />
    <g clip-path="url(#clip0_0_1)">
        <path
            d="M38.3963 18.575L24.425 4.6025C24.0385 4.21634 23.5145 3.99942 22.9681 3.99942C22.4218 3.99942 21.8978 4.21634 21.5113 4.6025L18.61 7.5025L22.29 11.1837C22.724 11.0357 23.1909 11.0126 23.6374 11.1171C24.0839 11.2216 24.492 11.4495 24.8153 11.7748C25.1385 12.1001 25.3637 12.5097 25.4654 12.9568C25.567 13.404 25.5409 13.8707 25.39 14.3037L28.9363 17.8512C29.4663 17.669 30.0428 17.674 30.5697 17.8652C31.0966 18.0565 31.542 18.4226 31.8317 18.9025C32.1214 19.3823 32.2379 19.947 32.1617 20.5023C32.0856 21.0576 31.8214 21.5701 31.4133 21.9542C31.0051 22.3384 30.4776 22.5711 29.9187 22.6136C29.3598 22.656 28.8033 22.5056 28.3418 22.1874C27.8803 21.8692 27.5418 21.4025 27.3827 20.8651C27.2237 20.3276 27.2536 19.7518 27.4675 19.2337L24.16 15.925V24.63C24.6627 24.8786 25.0651 25.292 25.3 25.8012C25.5349 26.3105 25.5881 26.8849 25.4508 27.4287C25.3136 27.9725 24.9941 28.4528 24.5456 28.7895C24.0972 29.1263 23.5468 29.2992 22.9863 29.2794C22.4258 29.2596 21.8891 29.0483 21.4655 28.6807C21.0419 28.3131 20.7571 27.8114 20.6586 27.2593C20.5601 26.7072 20.6537 26.138 20.924 25.6466C21.1942 25.1552 21.6247 24.7712 22.1438 24.5587V15.775C21.8443 15.6523 21.5721 15.4716 21.3429 15.2431C21.1136 15.0147 20.9319 14.7432 20.8081 14.4442C20.6844 14.1452 20.621 13.8246 20.6218 13.501C20.6225 13.1774 20.6874 12.8572 20.8125 12.5587L17.1825 8.93L7.60376 18.51C7.21722 18.8966 7.00006 19.4208 7.00006 19.9675C7.00006 20.5142 7.21722 21.0384 7.60376 21.425L21.575 35.3962C21.9616 35.7828 22.4858 36 23.0325 36C23.5792 36 24.1035 35.7828 24.49 35.3962L38.3963 21.49C38.7829 21.1032 39.0001 20.5787 39.0001 20.0319C39.0001 19.485 38.7829 18.9605 38.3963 18.5737"
            fill="#DE4C36" />
    </g>
    <defs>
        <clipPath id="clip0_0_1">
            <rect width="32" height="32" fill="white" transform="translate(7 4)" />
        </clipPath>
    </defs>
</svg>