<svg width="120" height="30" viewBox="0 0 120 30" fill="none" xmlns="http://www.w3.org/2000/svg">
    <rect width="120" height="30" rx="6" fill="white" />
    <path d="M33.75 0H114C117.314 0 120 2.68629 120 6V24C120 27.3137 117.314 30 114 30H33.75V0Z"
        fill="#DE4C36" />
    <path
        d="M72.8858 13.1236C72.8375 12.9446 72.7665 12.7869 72.6728 12.6506C72.579 12.5114 72.464 12.3935 72.3276 12.2969C72.1912 12.2003 72.035 12.1278 71.8588 12.0795C71.6827 12.0284 71.4895 12.0028 71.2793 12.0028C70.856 12.0028 70.4895 12.1051 70.1799 12.3097C69.873 12.5142 69.6358 12.8125 69.4682 13.2045C69.3006 13.5937 69.2168 14.0668 69.2168 14.6236C69.2168 15.1832 69.2978 15.6605 69.4597 16.0554C69.6216 16.4503 69.856 16.7514 70.1628 16.9588C70.4696 17.1662 70.8418 17.2699 71.2793 17.2699C71.6657 17.2699 71.9924 17.2074 72.2594 17.0824C72.5293 16.9545 72.7338 16.7741 72.873 16.5412C73.0123 16.3082 73.0819 16.0341 73.0819 15.7188L73.4739 15.7656H71.3517V14.2273H75.1145V15.3821C75.1145 16.1634 74.9483 16.8324 74.6159 17.3892C74.2864 17.946 73.8319 18.3736 73.2523 18.6719C72.6756 18.9702 72.0123 19.1193 71.2623 19.1193C70.4299 19.1193 69.6983 18.9389 69.0676 18.5781C68.437 18.2173 67.9455 17.7031 67.5932 17.0355C67.2409 16.3651 67.0648 15.5696 67.0648 14.6491C67.0648 13.9332 67.1713 13.2983 67.3844 12.7443C67.5975 12.1875 67.8944 11.7159 68.275 11.3295C68.6586 10.9432 69.1017 10.6506 69.6046 10.4517C70.1103 10.2528 70.6543 10.1534 71.2367 10.1534C71.7424 10.1534 72.2125 10.2259 72.6472 10.3707C73.0847 10.5156 73.4711 10.7202 73.8063 10.9844C74.1444 11.2486 74.4185 11.5625 74.6287 11.9261C74.839 12.2898 74.9696 12.6889 75.0208 13.1236H72.8858ZM78.4672 10.2727V19H76.3578V10.2727H78.4672ZM79.5059 11.9858V10.2727H86.8823V11.9858H84.236V19H82.1564V11.9858H79.5059Z"
        fill="white" />
    <g clip-path="url(#clip0_5_2)">
        <path
            d="M28.7972 13.9311L18.3188 3.45173C18.0289 3.16211 17.6359 2.99942 17.2261 2.99942C16.8163 2.99942 16.4233 3.16211 16.1335 3.45173L13.9575 5.62673L16.7175 8.38767C17.043 8.27661 17.3932 8.25928 17.7281 8.33765C18.0629 8.41603 18.369 8.58695 18.6115 8.83092C18.8539 9.0749 19.0228 9.38209 19.099 9.71747C19.1753 10.0528 19.1557 10.4029 19.0425 10.7277L21.7022 13.3883C22.0998 13.2516 22.5322 13.2553 22.9273 13.3988C23.3225 13.5422 23.6565 13.8168 23.8738 14.1767C24.091 14.5366 24.1784 14.9601 24.1213 15.3766C24.0642 15.7931 23.8661 16.1774 23.56 16.4655C23.2539 16.7537 22.8583 16.9282 22.4391 16.96C22.0199 16.9918 21.6025 16.879 21.2564 16.6404C20.9103 16.4018 20.6564 16.0518 20.5371 15.6487C20.4178 15.2455 20.4402 14.8137 20.6007 14.4252L18.12 11.9436V18.4724C18.4971 18.6588 18.7988 18.9688 18.975 19.3508C19.1512 19.7327 19.1911 20.1635 19.0881 20.5714C18.9852 20.9792 18.7456 21.3394 18.4092 21.592C18.0729 21.8446 17.6601 21.9742 17.2398 21.9594C16.8194 21.9445 16.4168 21.7861 16.0991 21.5104C15.7815 21.2347 15.5679 20.8584 15.494 20.4444C15.4201 20.0303 15.4903 19.6034 15.693 19.2348C15.8957 18.8662 16.2186 18.5783 16.6078 18.4189V11.8311C16.3833 11.7391 16.1791 11.6035 16.0072 11.4322C15.8352 11.2609 15.6989 11.0573 15.6061 10.833C15.5133 10.6087 15.4658 10.3683 15.4664 10.1256C15.4669 9.88293 15.5155 9.64274 15.6094 9.41892L12.8869 6.69735L5.70284 13.8824C5.41293 14.1723 5.25006 14.5655 5.25006 14.9755C5.25006 15.3855 5.41293 15.7787 5.70284 16.0686L16.1813 26.547C16.4712 26.8369 16.8644 26.9998 17.2744 26.9998C17.6844 26.9998 18.0776 26.8369 18.3675 26.547L28.7972 16.1174C29.0872 15.8273 29.2501 15.4339 29.2501 15.0238C29.2501 14.6136 29.0872 14.2202 28.7972 13.9302"
            fill="#DE4C36" />
    </g>
    <defs>
        <clipPath id="clip0_5_2">
            <rect width="24" height="24" fill="white" transform="translate(5.25 3)" />
        </clipPath>
    </defs>
</svg>    