<svg width="120" height="30" viewBox="0 0 120 30" fill="none" xmlns="http://www.w3.org/2000/svg">
    <rect width="120" height="30" rx="6" fill="white" />
    <g clip-path="url(#clip0_3_84)">
        <path d="M8.65487 24.3717L6.75 3H27.7035L25.7987 24.3717L17.2035 26.7876" fill="#E34F26" />
        <path d="M17.25 24.9292L24.1726 23.0243L25.7987 4.71902H17.25" fill="#EF652A" />
        <path
            d="M17.25 12.6637H13.7655L13.5332 9.96902H17.25V7.36725H10.6526L11.3496 15.3119H17.25V12.6637ZM17.25 19.4934L14.2765 18.7035L14.0907 16.6128H11.4889L11.8142 20.7478L17.25 22.2345V19.4934Z"
            fill="#ECEDEE" />
        <path
            d="M17.25 15.3119H20.4558L20.1305 18.7035L17.25 19.4934V22.2345L22.5929 20.7478L23.3363 12.6637H17.25V15.3119ZM17.25 7.36725V9.96902H23.5686L23.8009 7.36725H17.25Z"
            fill="white" />
    </g>
    <path d="M33.75 0H114C117.314 0 120 2.68629 120 6V24C120 27.3137 117.314 30 114 30H33.75V0Z"
        fill="#E34F26" />
    <path
        d="M60.0336 19V10.2727H62.1429V13.7756H65.5819V10.2727H67.687V19H65.5819V15.4929H62.1429V19H60.0336ZM68.7246 11.9858V10.2727H76.101V11.9858H73.4547V19H71.3752V11.9858H68.7246ZM77.1312 10.2727H79.7434L81.9593 15.6761H82.0616L84.2775 10.2727H86.8897V19H84.8358V13.6392H84.7633L82.6667 18.9446H81.3542L79.2576 13.6094H79.1852V19H77.1312V10.2727ZM88.2054 19V10.2727H90.3148V17.2869H93.9455V19H88.2054Z"
        fill="white" />
    <defs>
        <clipPath id="clip0_3_84">
            <rect width="21" height="24.1593" fill="white" transform="translate(6.75 3)" />
        </clipPath>
    </defs>
</svg>    