<svg width="160" height="40" viewBox="0 0 160 40" fill="none" xmlns="http://www.w3.org/2000/svg">
<rect width="160" height="40" rx="6" fill="white"/>
<path d="M74.7614 27V12.4545H76.5227V18.9318H84.2784V12.4545H86.0398V27H84.2784V20.4943H76.5227V27H74.7614ZM88.7706 14.017V12.4545H99.6797V14.017H95.1058V27H93.3445V14.017H88.7706ZM102.398 12.4545H104.5L109.444 24.5284H109.614L114.557 12.4545H116.659V27H115.012V15.9489H114.87L110.324 27H108.733L104.188 15.9489H104.046V27H102.398V12.4545ZM120.191 27V12.4545H121.952V25.4375H128.714V27H120.191Z" fill="black" fill-opacity="0.533333"/>
<path d="M11.5398 32.4956L9 4H36.9381L34.3982 32.4956L22.9381 35.7168" fill="#E34F26"/>
<path d="M23 33.2389L32.2301 30.6991L34.3982 6.29202H23" fill="#EF652A"/>
<path d="M23 16.8849H18.354L18.0443 13.292H23V9.823H14.2036L15.1328 20.4159H23V16.8849ZM23 25.9911L19.0354 24.938L18.7876 22.1504H15.3186L15.7522 27.6637L23 29.646V25.9911Z" fill="#ECEDEE"/>
<path d="M23 20.4159H27.2743L26.8407 24.938L23 25.9911V29.646L30.1239 27.6637L31.115 16.8849H23V20.4159ZM23 9.823V13.292H31.4248L31.7345 9.823H23Z" fill="white"/>
</svg>
