<svg width="160" height="40" viewBox="0 0 160 40" fill="none" xmlns="http://www.w3.org/2000/svg">
    <rect width="160" height="40" rx="6" fill="white" />
    <path d="M11.5398 32.4956L9 4H36.9381L34.3982 32.4956L22.9381 35.7168" fill="#E34F26" />
    <path d="M23 33.2389L32.2301 30.6991L34.3982 6.29202H23" fill="#EF652A" />
    <path
        d="M23 16.8849H18.354L18.0443 13.292H23V9.823H14.2036L15.1328 20.4159H23V16.8849ZM23 25.9911L19.0354 24.938L18.7876 22.1504H15.3186L15.7522 27.6637L23 29.646V25.9911Z"
        fill="#ECEDEE" />
    <path
        d="M23 20.4159H27.2743L26.8407 24.938L23 25.9911V29.646L30.1239 27.6637L31.115 16.8849H23V20.4159ZM23 9.823V13.292H31.4248L31.7345 9.823H23Z"
        fill="white" />
    <path d="M45 0H154C157.314 0 160 2.68629 160 6V34C160 37.3137 157.314 40 154 40H45V0Z"
        fill="#E34F26" />
    <path
        d="M75.7614 27V12.4545H77.5227V18.9318H85.2784V12.4545H87.0398V27H85.2784V20.4943H77.5227V27H75.7614ZM89.7706 14.017V12.4545H100.68V14.017H96.1058V27H94.3445V14.017H89.7706ZM103.398 12.4545H105.5L110.444 24.5284H110.614L115.557 12.4545H117.659V27H116.012V15.9489H115.87L111.324 27H109.733L105.188 15.9489H105.046V27H103.398V12.4545ZM121.191 27V12.4545H122.952V25.4375H129.714V27H121.191Z"
        fill="white" />
</svg>