<svg width="140" height="30" viewBox="0 0 140 30" fill="none" xmlns="http://www.w3.org/2000/svg">
    <rect width="139.5" height="30" rx="6" fill="white" />
    <g clip-path="url(#clip0_3_87)">
        <path d="M5.25003 3H29.25V27H5.25003V3Z" fill="#F0DB4F" />
        <path
            d="M27.2858 21.2761C27.1101 20.181 26.396 19.2616 24.2812 18.4038C23.5466 18.0662 22.7276 17.8244 22.4835 17.2677C22.3968 16.9437 22.3854 16.7612 22.4401 16.565C22.5976 15.9285 23.3573 15.73 23.9595 15.9126C24.3474 16.0426 24.7147 16.3415 24.936 16.8183C25.9717 16.1476 25.9694 16.1521 26.6926 15.6913C26.428 15.2806 26.2865 15.0913 26.1131 14.9156C25.4903 14.2198 24.6417 13.8616 23.2842 13.889C23.0493 13.9187 22.812 13.9506 22.577 13.9803C21.8995 14.1514 21.2538 14.5073 20.8751 14.9841C19.739 16.273 20.063 18.5293 21.4455 19.4578C22.8074 20.4799 24.8082 20.7126 25.0637 21.6685C25.3124 22.8388 24.2037 23.2175 23.1017 23.0829C22.2896 22.9141 21.8379 22.5012 21.3496 21.7506C20.4508 22.2708 20.4508 22.2708 19.5269 22.8023C19.7459 23.2814 19.9763 23.4981 20.3436 23.9133C22.082 25.6768 26.4325 25.5901 27.2128 22.9209C27.2447 22.8297 27.4546 22.2183 27.2858 21.2761ZM18.2972 14.0304H16.0523C16.0523 15.9696 16.0432 17.8951 16.0432 19.8342C16.0432 21.0684 16.1071 22.2 15.9063 22.5468C15.5778 23.2289 14.7269 23.1445 14.339 23.0122C13.9443 22.8182 13.7436 22.5422 13.5109 22.1521C13.447 22.0403 13.3991 21.9536 13.3831 21.9468C12.774 22.3186 12.1671 22.6928 11.558 23.0646C11.8615 23.6875 12.3086 24.2281 12.8812 24.5795C13.7367 25.0928 14.8865 25.2502 16.0888 24.9741C16.8713 24.746 17.5466 24.2738 17.9002 23.5551C18.4112 22.6129 18.3017 21.4723 18.2972 20.2107C18.3086 18.1529 18.2972 16.0951 18.2972 14.0304Z"
            fill="#323330" />
    </g>
    <path
        d="M33.75 0H133.5C136.814 0 139.5 2.68629 139.5 6V24C139.5 27.3137 136.814 30 133.5 30H33.75V0Z"
        fill="#F0DB4F" />
    <path
        d="M52.2763 10.2727H54.3559V16.3068C54.353 16.8722 54.2181 17.3665 53.951 17.7898C53.684 18.2102 53.3147 18.5369 52.8431 18.7699C52.3743 19.0028 51.8317 19.1193 51.2152 19.1193C50.6698 19.1193 50.174 19.0241 49.728 18.8338C49.2848 18.6435 48.9311 18.348 48.6669 17.9474C48.4056 17.5469 48.2763 17.0341 48.2791 16.4091H50.38C50.3885 16.6335 50.4311 16.8253 50.5078 16.9844C50.5874 17.1406 50.6968 17.2585 50.836 17.3381C50.9752 17.4176 51.1414 17.4574 51.3345 17.4574C51.5363 17.4574 51.7067 17.4148 51.8459 17.3295C51.9851 17.2415 52.0902 17.1122 52.1613 16.9418C52.2351 16.7713 52.2735 16.5597 52.2763 16.3068V10.2727ZM57.5679 19H55.3008L58.2454 10.2727H61.0537L63.9983 19H61.7312L59.6815 12.4716H59.6133L57.5679 19ZM57.2653 15.5653H62.0039V17.1676H57.2653V15.5653ZM65.7475 10.2727L67.6992 16.6648H67.7717L69.7234 10.2727H72.0842L69.1396 19H66.3314L63.3867 10.2727H65.7475ZM73.6108 19H71.3438L74.2884 10.2727H77.0966L80.0412 19H77.7742L75.7245 12.4716H75.6563L73.6108 19ZM73.3083 15.5653H78.0469V17.1676H73.3083V15.5653ZM85.4287 12.8892C85.4002 12.5767 85.2738 12.3338 85.0494 12.1605C84.8278 11.9844 84.511 11.8963 84.0991 11.8963C83.8264 11.8963 83.5991 11.9318 83.4173 12.0028C83.2355 12.0739 83.0991 12.1719 83.0082 12.2969C82.9173 12.419 82.8704 12.5597 82.8676 12.7188C82.8619 12.8494 82.8875 12.9645 82.9443 13.0639C83.0039 13.1634 83.0892 13.2514 83.2 13.3281C83.3136 13.402 83.45 13.4673 83.6091 13.5241C83.7681 13.581 83.9471 13.6307 84.146 13.6733L84.896 13.8438C85.3278 13.9375 85.7085 14.0625 86.038 14.2188C86.3704 14.375 86.6488 14.5611 86.8733 14.777C87.1005 14.9929 87.2724 15.2415 87.3889 15.5227C87.5054 15.804 87.565 16.1193 87.5679 16.4688C87.565 17.0199 87.4258 17.4929 87.1502 17.8878C86.8747 18.2827 86.4784 18.5852 85.9613 18.7955C85.4471 19.0057 84.8264 19.1108 84.0991 19.1108C83.369 19.1108 82.7326 19.0014 82.19 18.7827C81.6474 18.5639 81.2255 18.2315 80.9244 17.7855C80.6233 17.3395 80.4684 16.7756 80.4599 16.0938H82.4798C82.4968 16.375 82.5721 16.6094 82.7056 16.7969C82.8392 16.9844 83.0224 17.1264 83.2554 17.223C83.4912 17.3196 83.7639 17.3679 84.0735 17.3679C84.3576 17.3679 84.5991 17.3295 84.798 17.2528C84.9997 17.1761 85.1545 17.0696 85.2625 16.9332C85.3704 16.7969 85.4258 16.6406 85.4287 16.4645C85.4258 16.2997 85.3747 16.1591 85.2752 16.0426C85.1758 15.9233 85.0224 15.821 84.815 15.7358C84.6105 15.6477 84.3491 15.5668 84.0309 15.4929L83.119 15.2798C82.3633 15.1065 81.7681 14.8267 81.3335 14.4403C80.8988 14.0511 80.6829 13.5256 80.6858 12.8636C80.6829 12.3239 80.8278 11.8509 81.1204 11.4446C81.413 11.0384 81.8179 10.7216 82.3349 10.4943C82.8519 10.267 83.4414 10.1534 84.1034 10.1534C84.7795 10.1534 85.3662 10.2685 85.8633 10.4986C86.3633 10.7259 86.7511 11.0455 87.0267 11.4574C87.3022 11.8693 87.4429 12.3466 87.4485 12.8892H85.4287ZM96.5551 13.4347H94.4244C94.396 13.2159 94.3377 13.0185 94.2497 12.8423C94.1616 12.6662 94.0451 12.5156 93.9002 12.3906C93.7554 12.2656 93.5835 12.1705 93.3846 12.1051C93.1886 12.0369 92.9713 12.0028 92.7326 12.0028C92.3093 12.0028 91.9443 12.1065 91.6375 12.3139C91.3335 12.5213 91.0991 12.821 90.9343 13.2131C90.7724 13.6051 90.6914 14.0795 90.6914 14.6364C90.6914 15.2159 90.7738 15.7017 90.9386 16.0938C91.1062 16.483 91.3406 16.777 91.6417 16.9759C91.9457 17.1719 92.3051 17.2699 92.7198 17.2699C92.9528 17.2699 93.1644 17.2401 93.3548 17.1804C93.548 17.1207 93.717 17.0341 93.8619 16.9205C94.0096 16.804 94.1304 16.6634 94.2241 16.4986C94.3207 16.331 94.3875 16.142 94.4244 15.9318L96.5551 15.9446C96.5181 16.331 96.4059 16.7116 96.2184 17.0866C96.0338 17.4616 95.7795 17.804 95.4556 18.1136C95.1318 18.4205 94.7369 18.6648 94.271 18.8466C93.8079 19.0284 93.2767 19.1193 92.6772 19.1193C91.8875 19.1193 91.1801 18.946 90.5551 18.5994C89.9329 18.25 89.4414 17.7415 89.0806 17.0739C88.7198 16.4062 88.5394 15.5937 88.5394 14.6364C88.5394 13.6761 88.7227 12.8622 89.0892 12.1946C89.4556 11.527 89.9514 11.0199 90.5764 10.6733C91.2014 10.3267 91.9017 10.1534 92.6772 10.1534C93.2056 10.1534 93.6943 10.2273 94.1431 10.375C94.592 10.5199 94.9869 10.733 95.3278 11.0142C95.6687 11.2926 95.9457 11.6349 96.1588 12.0412C96.3718 12.4474 96.5039 12.9119 96.5551 13.4347ZM97.7621 19V10.2727H101.367C102.021 10.2727 102.585 10.3906 103.059 10.6264C103.536 10.8594 103.904 11.1946 104.163 11.6321C104.421 12.0668 104.55 12.5824 104.55 13.179C104.55 13.7841 104.418 14.2983 104.154 14.7216C103.89 15.142 103.515 15.4631 103.029 15.6847C102.543 15.9034 101.968 16.0128 101.303 16.0128H99.0235V14.3509H100.911C101.229 14.3509 101.495 14.3097 101.708 14.2273C101.924 14.142 102.087 14.0142 102.198 13.8438C102.309 13.6705 102.364 13.4489 102.364 13.179C102.364 12.9091 102.309 12.6861 102.198 12.5099C102.087 12.331 101.924 12.1974 101.708 12.1094C101.492 12.0185 101.227 11.973 100.911 11.973H99.8715V19H97.7621ZM102.675 15.0114L104.849 19H102.548L100.417 15.0114H102.675ZM107.817 10.2727V19H105.707V10.2727H107.817ZM109.141 19V10.2727H112.746C113.4 10.2727 113.963 10.4006 114.438 10.6562C114.915 10.9091 115.283 11.2628 115.542 11.7173C115.8 12.169 115.929 12.6946 115.929 13.294C115.929 13.8963 115.797 14.4233 115.533 14.875C115.272 15.3239 114.898 15.6719 114.412 15.919C113.927 16.1662 113.35 16.2898 112.682 16.2898H110.458V14.6278H112.29C112.608 14.6278 112.874 14.5724 113.087 14.4616C113.303 14.3509 113.466 14.196 113.577 13.9972C113.688 13.7955 113.743 13.5611 113.743 13.294C113.743 13.0241 113.688 12.7912 113.577 12.5952C113.466 12.3963 113.303 12.2429 113.087 12.1349C112.871 12.027 112.605 11.973 112.29 11.973H111.25V19H109.141ZM116.684 11.9858V10.2727H124.06V11.9858H121.414V19H119.334V11.9858H116.684Z"
        fill="white" />
    <defs>
        <clipPath id="clip0_3_87">
            <rect width="24" height="24" fill="white" transform="translate(5.25003 3)" />
        </clipPath>
    </defs>
</svg>    