<svg width="186" height="40" viewBox="0 0 186 40" fill="none" xmlns="http://www.w3.org/2000/svg">
    <rect width="186" height="40" rx="6" fill="white" />
    <g clip-path="url(#clip0_3_87)">
        <path d="M7 4H39V36H7V4Z" fill="#F0DB4F" />
        <path
            d="M36.381 28.3681C36.1468 26.908 35.1947 25.6821 32.3749 24.5384C31.3954 24.0882 30.3034 23.7658 29.9779 23.0236C29.8624 22.5916 29.8471 22.3483 29.9201 22.0867C30.13 21.238 31.143 20.9734 31.946 21.2167C32.4631 21.3901 32.9528 21.7886 33.2479 22.4243C34.6289 21.5301 34.6259 21.5361 35.5901 20.9217C35.2373 20.3742 35.0487 20.1217 34.8175 19.8875C33.9871 18.9597 32.8555 18.4822 31.0456 18.5187C30.7323 18.5582 30.416 18.6008 30.1027 18.6403C29.1993 18.8685 28.3384 19.343 27.8335 19.9787C26.3186 21.6974 26.7506 24.7057 28.5939 25.9438C30.4099 27.3065 33.0776 27.6168 33.4182 28.8913C33.7498 30.4518 32.2715 30.9567 30.8023 30.7772C29.7194 30.5521 29.1171 30.0016 28.4662 29.0008C27.2677 29.6943 27.2677 29.6943 26.0358 30.4031C26.3278 31.0419 26.635 31.3308 27.1247 31.8844C29.4426 34.2358 35.2433 34.1202 36.2837 30.5613C36.3262 30.4396 36.6061 29.6243 36.381 28.3681ZM24.3962 18.7072H21.403C21.403 21.2928 21.3909 23.8601 21.3909 26.4456C21.3909 28.0913 21.4761 29.6 21.2084 30.0624C20.7704 30.9718 19.6358 30.8593 19.1187 30.6829C18.5924 30.4243 18.3247 30.0563 18.0145 29.5361C17.9293 29.3871 17.8654 29.2715 17.8441 29.2624C17.032 29.7582 16.2228 30.257 15.4106 30.7529C15.8152 31.5833 16.4114 32.3042 17.1749 32.7726C18.3156 33.457 19.8487 33.6669 21.4517 33.2988C22.4951 32.9947 23.3954 32.365 23.8669 31.4069C24.5483 30.1506 24.4023 28.6297 24.3962 26.9475C24.4114 24.2038 24.3962 21.4601 24.3962 18.7072Z"
            fill="#323330" />
    </g>
    <path d="M45 0H180C183.314 0 186 2.68629 186 6V34C186 37.3137 183.314 40 180 40H45V0Z"
        fill="#F0DB4F" />
    <path
        d="M62.3295 12.4545H64.0909V22.8523C64.0909 23.7803 63.9205 24.5687 63.5795 25.2173C63.2386 25.866 62.758 26.3584 62.1378 26.6946C61.5175 27.0308 60.786 27.1989 59.9432 27.1989C59.1477 27.1989 58.4399 27.0545 57.8196 26.7656C57.1993 26.4721 56.7116 26.0554 56.3565 25.5156C56.0014 24.9759 55.8239 24.3343 55.8239 23.5909H57.5568C57.5568 24.0028 57.6586 24.3627 57.8622 24.6705C58.0705 24.9735 58.3546 25.2102 58.7145 25.3807C59.0743 25.5511 59.4839 25.6364 59.9432 25.6364C60.4498 25.6364 60.8807 25.5298 61.2358 25.3168C61.5909 25.1037 61.8608 24.7912 62.0455 24.3793C62.2348 23.9626 62.3295 23.4536 62.3295 22.8523V12.4545ZM68.2173 27H66.3707L71.7116 12.4545H73.5298L78.8707 27H77.0241L72.6776 14.7557H72.5639L68.2173 27ZM68.8991 21.3182H76.3423V22.8807H68.8991V21.3182ZM80.3658 12.4545L84.6839 24.6989H84.8544L89.1726 12.4545H91.0192L85.6783 27H83.8601L78.5192 12.4545H80.3658ZM92.6314 27H90.7848L96.1257 12.4545H97.9439L103.285 27H101.438L97.0916 14.7557H96.978L92.6314 27ZM93.3132 21.3182H100.756V22.8807H93.3132V21.3182ZM113.505 16.0909C113.42 15.3712 113.074 14.8125 112.468 14.4148C111.862 14.017 111.119 13.8182 110.238 13.8182C109.594 13.8182 109.031 13.9223 108.548 14.1307C108.069 14.339 107.695 14.6255 107.425 14.9901C107.16 15.3546 107.028 15.7689 107.028 16.233C107.028 16.6212 107.12 16.955 107.305 17.2344C107.494 17.509 107.736 17.7386 108.029 17.9233C108.323 18.1032 108.63 18.2524 108.952 18.3707C109.274 18.4844 109.57 18.5767 109.84 18.6477L111.317 19.0455C111.696 19.1449 112.118 19.2822 112.582 19.4574C113.05 19.6326 113.498 19.8717 113.924 20.1747C114.355 20.473 114.71 20.8565 114.989 21.3253C115.269 21.794 115.408 22.3693 115.408 23.0511C115.408 23.8371 115.202 24.5473 114.79 25.1818C114.383 25.8163 113.787 26.3205 113.001 26.6946C112.219 27.0687 111.27 27.2557 110.153 27.2557C109.111 27.2557 108.209 27.0876 107.447 26.7514C106.689 26.4152 106.093 25.9465 105.657 25.3452C105.226 24.7438 104.982 24.0455 104.925 23.25H106.744C106.791 23.7992 106.976 24.2538 107.298 24.6136C107.624 24.9687 108.036 25.2339 108.533 25.4091C109.035 25.5795 109.575 25.6648 110.153 25.6648C110.825 25.6648 111.429 25.5559 111.964 25.3381C112.499 25.1155 112.923 24.8078 113.235 24.4148C113.548 24.017 113.704 23.553 113.704 23.0227C113.704 22.5398 113.569 22.1468 113.299 21.8438C113.029 21.5407 112.674 21.2945 112.234 21.1051C111.793 20.9157 111.317 20.75 110.806 20.608L109.016 20.0966C107.88 19.7699 106.98 19.3035 106.317 18.6974C105.655 18.0914 105.323 17.2983 105.323 16.3182C105.323 15.5038 105.543 14.7936 105.984 14.1875C106.429 13.5767 107.025 13.1032 107.773 12.767C108.526 12.4261 109.367 12.2557 110.295 12.2557C111.232 12.2557 112.066 12.4238 112.795 12.7599C113.524 13.0914 114.102 13.5459 114.528 14.1236C114.959 14.7012 115.186 15.357 115.21 16.0909H113.505ZM130.009 17H128.248C128.143 16.4934 127.961 16.0483 127.701 15.6648C127.445 15.2812 127.132 14.9593 126.763 14.6989C126.399 14.4337 125.994 14.2348 125.549 14.1023C125.104 13.9697 124.64 13.9034 124.157 13.9034C123.276 13.9034 122.478 14.1259 121.763 14.571C121.053 15.0161 120.487 15.6719 120.066 16.5384C119.649 17.4048 119.441 18.4678 119.441 19.7273C119.441 20.9867 119.649 22.0497 120.066 22.9162C120.487 23.7827 121.053 24.4384 121.763 24.8835C122.478 25.3286 123.276 25.5511 124.157 25.5511C124.64 25.5511 125.104 25.4848 125.549 25.3523C125.994 25.2197 126.399 25.0232 126.763 24.7628C127.132 24.4976 127.445 24.1733 127.701 23.7898C127.961 23.4015 128.143 22.9564 128.248 22.4545H130.009C129.876 23.1979 129.635 23.8632 129.284 24.4503C128.934 25.0374 128.498 25.5369 127.978 25.9489C127.457 26.3561 126.872 26.6662 126.223 26.8793C125.579 27.0923 124.891 27.1989 124.157 27.1989C122.916 27.1989 121.813 26.8958 120.847 26.2898C119.881 25.6837 119.121 24.822 118.567 23.7045C118.013 22.5871 117.736 21.2614 117.736 19.7273C117.736 18.1932 118.013 16.8674 118.567 15.75C119.121 14.6326 119.881 13.7708 120.847 13.1648C121.813 12.5587 122.916 12.2557 124.157 12.2557C124.891 12.2557 125.579 12.3622 126.223 12.5753C126.872 12.7884 127.457 13.1009 127.978 13.5128C128.498 13.92 128.934 14.4171 129.284 15.0043C129.635 15.5866 129.876 16.2519 130.009 17ZM132.855 27V12.4545H137.77C138.906 12.4545 139.839 12.6487 140.568 13.0369C141.297 13.4205 141.837 13.9484 142.188 14.6207C142.538 15.2931 142.713 16.0578 142.713 16.9148C142.713 17.7718 142.538 18.5317 142.188 19.1946C141.837 19.8575 141.3 20.3783 140.575 20.7571C139.851 21.1312 138.925 21.3182 137.798 21.3182H133.821V19.7273H137.741C138.518 19.7273 139.143 19.6136 139.616 19.3864C140.095 19.1591 140.44 18.8371 140.653 18.4205C140.871 17.9991 140.98 17.4972 140.98 16.9148C140.98 16.3324 140.871 15.8234 140.653 15.3878C140.436 14.9522 140.088 14.616 139.609 14.3793C139.131 14.1378 138.499 14.017 137.713 14.017H134.616V27H132.855ZM139.702 20.4659L143.281 27H141.236L137.713 20.4659H139.702ZM147.409 12.4545V27H145.648V12.4545H147.409ZM150.941 27V12.4545H155.856C156.997 12.4545 157.93 12.6605 158.654 13.0724C159.383 13.4796 159.923 14.0312 160.273 14.7273C160.624 15.4233 160.799 16.1998 160.799 17.0568C160.799 17.9138 160.624 18.6927 160.273 19.3935C159.928 20.0942 159.393 20.6529 158.668 21.0696C157.944 21.4815 157.016 21.6875 155.884 21.6875H152.362V20.125H155.827C156.609 20.125 157.236 19.9901 157.71 19.7202C158.183 19.4503 158.526 19.0857 158.739 18.6264C158.957 18.1624 159.066 17.6392 159.066 17.0568C159.066 16.4744 158.957 15.9536 158.739 15.4943C158.526 15.035 158.181 14.6752 157.702 14.4148C157.224 14.1496 156.59 14.017 155.799 14.017H152.702V27H150.941ZM162.841 14.017V12.4545H173.75V14.017H169.176V27H167.415V14.017H162.841Z"
        fill="black" />
    <defs>
        <clipPath id="clip0_3_87">
            <rect width="32" height="32" fill="white" transform="translate(7 4)" />
        </clipPath>
    </defs>
</svg>