<svg width="120" height="30" viewBox="0 0 120 30" fill="none" xmlns="http://www.w3.org/2000/svg">
    <rect width="120" height="30" rx="6" fill="white" />
    <g clip-path="url(#clip0_3_77)">
        <path
            d="M29.2406 8.5875L29.25 8.69063V13.9969C29.25 14.1281 29.175 14.2594 29.0625 14.325L24.6 16.8937V21.975C24.6 22.1062 24.5344 22.2375 24.4125 22.3031L15.1219 27.6469L15.0563 27.6844L15.0281 27.6937C14.9625 27.7125 14.8969 27.7125 14.8313 27.6937L14.7938 27.6844L14.7375 27.6562L5.43751 22.3125C5.31563 22.2375 5.24063 22.1062 5.24063 21.975V6.06563L5.25001 5.9625L5.26876 5.925L5.29688 5.86875L5.31563 5.83125L5.35313 5.78438L5.39063 5.75625C5.40938 5.75625 5.41876 5.7375 5.43751 5.72813L10.0875 3.05625C10.2094 2.98125 10.3594 2.98125 10.4719 3.05625L15.1219 5.71875C15.1406 5.71875 15.15 5.7375 15.1594 5.74687L15.2063 5.775C15.2063 5.79375 15.225 5.8125 15.2344 5.82188L15.2625 5.85938L15.2906 5.91563L15.3 5.95312L15.3188 6.04688V15.9844L19.1813 13.7625V8.69063C19.1813 8.65313 19.1813 8.625 19.2 8.59688L19.2094 8.55937L19.2375 8.49375L19.2656 8.46562L19.2938 8.41875L19.3406 8.39062L19.3781 8.35312L24.0281 5.68125C24.1406 5.61563 24.2906 5.61563 24.4031 5.68125L29.0625 8.34375L29.1094 8.38125L29.1469 8.40938L29.1844 8.45625L29.2031 8.48438C29.2219 8.50313 29.2219 8.53125 29.2313 8.55L29.25 8.57812L29.2406 8.5875ZM28.4719 13.7719V9.36563L26.85 10.3031L24.6 11.5875V15.9938L28.4719 13.7719ZM23.8313 21.7406V17.3344L21.6188 18.6L15.3188 22.2V26.6531L23.8313 21.75V21.7406ZM6.01876 6.74063V21.75L14.5406 26.6531V22.2L10.0875 19.6781L10.05 19.6406C10.0313 19.6406 10.0219 19.6312 10.0125 19.6125L9.97501 19.575L9.94688 19.5375L9.92813 19.4906L9.90938 19.4437V19.3875L9.89063 19.3406V8.9625L7.65001 7.66875L6.02813 6.73125L6.01876 6.74063ZM10.2844 3.83437L6.41251 6.075L10.2844 8.29688L14.1469 6.075L10.2844 3.83437ZM12.2813 17.7469L14.5313 16.4531V6.73125L12.9094 7.66875L10.6594 8.9625V18.675L12.2813 17.7375V17.7469ZM24.2156 6.45938L20.3438 8.69063L24.2156 10.9219L28.0875 8.69063L24.2156 6.45938ZM23.8313 11.5875L21.5813 10.2938L19.9594 9.35625V13.7625L22.2094 15.0656L23.8313 16.0031V11.5969V11.5875ZM14.925 21.525L20.6063 18.2906L23.4375 16.6688L19.575 14.4375L15.1219 17.0062L11.0625 19.3406L14.925 21.525Z"
            fill="#FF2D20" />
    </g>
    <path d="M33.75 0H114C117.314 0 120 2.68629 120 6V24C120 27.3137 117.314 30 114 30H33.75V0Z"
        fill="#FF2D20" />
    <path
        d="M49.2933 19V10.2727H51.4027V17.2869H55.0334V19H49.2933ZM58.1303 19H55.8633L58.8079 10.2727H61.6161L64.5607 19H62.2937L60.244 12.4716H60.1758L58.1303 19ZM57.8278 15.5653H62.5664V17.1676H57.8278V15.5653ZM65.5004 19V10.2727H69.1055C69.7589 10.2727 70.3228 10.3906 70.7972 10.6264C71.2745 10.8594 71.6424 11.1946 71.9009 11.6321C72.1594 12.0668 72.2887 12.5824 72.2887 13.179C72.2887 13.7841 72.1566 14.2983 71.8924 14.7216C71.6282 15.142 71.2532 15.4631 70.7674 15.6847C70.2816 15.9034 69.7063 16.0128 69.0415 16.0128H66.7617V14.3509H68.6495C68.9677 14.3509 69.2333 14.3097 69.4464 14.2273C69.6623 14.142 69.8256 14.0142 69.9364 13.8438C70.0472 13.6705 70.1026 13.4489 70.1026 13.179C70.1026 12.9091 70.0472 12.6861 69.9364 12.5099C69.8256 12.331 69.6623 12.1974 69.4464 12.1094C69.2305 12.0185 68.9648 11.973 68.6495 11.973H67.6097V19H65.5004ZM70.4137 15.0114L72.587 19H70.2859L68.1552 15.0114H70.4137ZM75.3335 19H73.0664L76.011 10.2727H78.8192L81.7638 19H79.4968L77.4471 12.4716H77.3789L75.3335 19ZM75.0309 15.5653H79.7695V17.1676H75.0309V15.5653ZM83.5131 10.2727L85.4648 16.6648H85.5373L87.489 10.2727H89.8498L86.9052 19H84.0969L81.1523 10.2727H83.5131ZM90.7894 19V10.2727H96.8746V11.9858H92.8988V13.7756H96.5636V15.4929H92.8988V17.2869H96.8746V19H90.7894ZM98.1957 19V10.2727H100.305V17.2869H103.936V19H98.1957Z"
        fill="white" />
    <defs>
        <clipPath id="clip0_3_77">
            <rect width="24" height="24.75" fill="white" transform="translate(5.25 3)" />
        </clipPath>
    </defs>
</svg>    