<svg width="160" height="40" viewBox="0 0 160 40" fill="none" xmlns="http://www.w3.org/2000/svg">
<rect width="160" height="40" rx="6" fill="white"/>
<path d="M58.7614 27V12.4545H60.5227V25.4375H67.2841V27H58.7614ZM71.5259 27H69.6793L75.0202 12.4545H76.8384L82.1793 27H80.3327L75.9862 14.7557H75.8725L71.5259 27ZM72.2077 21.3182H79.6509V22.8807H72.2077V21.3182ZM84.445 27V12.4545H89.3597C90.4961 12.4545 91.4289 12.6487 92.158 13.0369C92.8872 13.4205 93.427 13.9484 93.7773 14.6207C94.1277 15.2931 94.3029 16.0578 94.3029 16.9148C94.3029 17.7718 94.1277 18.5317 93.7773 19.1946C93.427 19.8575 92.8896 20.3783 92.1651 20.7571C91.4407 21.1312 90.515 21.3182 89.3881 21.3182H85.4109V19.7273H89.3313C90.1078 19.7273 90.7328 19.6136 91.2063 19.3864C91.6845 19.1591 92.0302 18.8371 92.2433 18.4205C92.4611 17.9991 92.57 17.4972 92.57 16.9148C92.57 16.3324 92.4611 15.8234 92.2433 15.3878C92.0255 14.9522 91.6774 14.616 91.1992 14.3793C90.721 14.1378 90.0889 14.017 89.3029 14.017H86.2063V27H84.445ZM91.2915 20.4659L94.8711 27H92.8256L89.3029 20.4659H91.2915ZM97.8345 27H95.9879L101.329 12.4545H103.147L108.488 27H106.641L102.295 14.7557H102.181L97.8345 27ZM98.5163 21.3182H105.96V22.8807H98.5163V21.3182ZM109.983 12.4545L114.301 24.6989H114.472L118.79 12.4545H120.636L115.295 27H113.477L108.136 12.4545H109.983ZM122.902 27V12.4545H131.68V14.017H124.663V18.9318H131.226V20.4943H124.663V25.4375H131.794V27H122.902ZM134.855 27V12.4545H136.616V25.4375H143.378V27H134.855Z" fill="black" fill-opacity="0.533333"/>
<g clip-path="url(#clip0_3_36)">
<path d="M38.9875 11.45L39 11.5875V18.6625C39 18.8375 38.9 19.0125 38.75 19.1L32.8 22.525V29.3C32.8 29.475 32.7125 29.65 32.55 29.7375L20.1625 36.8625L20.075 36.9125L20.0375 36.925C19.95 36.95 19.8625 36.95 19.775 36.925L19.725 36.9125L19.65 36.875L7.24999 29.75C7.08749 29.65 6.98749 29.475 6.98749 29.3V8.0875L6.99999 7.95L7.02499 7.9L7.06249 7.825L7.08749 7.775L7.13749 7.7125L7.18749 7.675C7.21249 7.675 7.22499 7.65 7.24999 7.6375L13.45 4.075C13.6125 3.975 13.8125 3.975 13.9625 4.075L20.1625 7.625C20.1875 7.625 20.2 7.65 20.2125 7.6625L20.275 7.7C20.275 7.725 20.3 7.75 20.3125 7.7625L20.35 7.8125L20.3875 7.8875L20.4 7.9375L20.425 8.0625V21.3125L25.575 18.35V11.5875C25.575 11.5375 25.575 11.5 25.6 11.4625L25.6125 11.4125L25.65 11.325L25.6875 11.2875L25.725 11.225L25.7875 11.1875L25.8375 11.1375L32.0375 7.575C32.1875 7.4875 32.3875 7.4875 32.5375 7.575L38.75 11.125L38.8125 11.175L38.8625 11.2125L38.9125 11.275L38.9375 11.3125C38.9625 11.3375 38.9625 11.375 38.975 11.4L39 11.4375L38.9875 11.45ZM37.9625 18.3625V12.4875L35.8 13.7375L32.8 15.45V21.325L37.9625 18.3625ZM31.775 28.9875V23.1125L28.825 24.8L20.425 29.6V35.5375L31.775 29V28.9875ZM8.02499 8.9875V29L19.3875 35.5375V29.6L13.45 26.2375L13.4 26.1875C13.375 26.1875 13.3625 26.175 13.35 26.15L13.3 26.1L13.2625 26.05L13.2375 25.9875L13.2125 25.925V25.85L13.1875 25.7875V11.95L10.2 10.225L8.03749 8.975L8.02499 8.9875ZM13.7125 5.1125L8.54999 8.1L13.7125 11.0625L18.8625 8.1L13.7125 5.1125ZM16.375 23.6625L19.375 21.9375V8.975L17.2125 10.225L14.2125 11.95V24.9L16.375 23.65V23.6625ZM32.2875 8.6125L27.125 11.5875L32.2875 14.5625L37.45 11.5875L32.2875 8.6125ZM31.775 15.45L28.775 13.725L26.6125 12.475V18.35L29.6125 20.0875L31.775 21.3375V15.4625V15.45ZM19.9 28.7L27.475 24.3875L31.25 22.225L26.1 19.25L20.1625 22.675L14.75 25.7875L19.9 28.7Z" fill="#FF2D20"/>
</g>
<defs>
<clipPath id="clip0_3_36">
<rect width="32" height="33" fill="white" transform="translate(7 4)"/>
</clipPath>
</defs>
</svg>

