<svg width="160" height="40" viewBox="0 0 160 40" fill="none" xmlns="http://www.w3.org/2000/svg">
    <rect width="160" height="40" rx="6" fill="white" />
    <g clip-path="url(#clip0_3_77)">
        <path
            d="M38.9875 11.45L39 11.5875V18.6625C39 18.8375 38.9 19.0125 38.75 19.1L32.8 22.525V29.3C32.8 29.475 32.7125 29.65 32.55 29.7375L20.1625 36.8625L20.075 36.9125L20.0375 36.925C19.95 36.95 19.8625 36.95 19.775 36.925L19.725 36.9125L19.65 36.875L7.24999 29.75C7.08749 29.65 6.98749 29.475 6.98749 29.3V8.0875L6.99999 7.95L7.02499 7.9L7.06249 7.825L7.08749 7.775L7.13749 7.7125L7.18749 7.675C7.21249 7.675 7.22499 7.65 7.24999 7.6375L13.45 4.075C13.6125 3.975 13.8125 3.975 13.9625 4.075L20.1625 7.625C20.1875 7.625 20.2 7.65 20.2125 7.6625L20.275 7.7C20.275 7.725 20.3 7.75 20.3125 7.7625L20.35 7.8125L20.3875 7.8875L20.4 7.9375L20.425 8.0625V21.3125L25.575 18.35V11.5875C25.575 11.5375 25.575 11.5 25.6 11.4625L25.6125 11.4125L25.65 11.325L25.6875 11.2875L25.725 11.225L25.7875 11.1875L25.8375 11.1375L32.0375 7.575C32.1875 7.4875 32.3875 7.4875 32.5375 7.575L38.75 11.125L38.8125 11.175L38.8625 11.2125L38.9125 11.275L38.9375 11.3125C38.9625 11.3375 38.9625 11.375 38.975 11.4L39 11.4375L38.9875 11.45ZM37.9625 18.3625V12.4875L35.8 13.7375L32.8 15.45V21.325L37.9625 18.3625ZM31.775 28.9875V23.1125L28.825 24.8L20.425 29.6V35.5375L31.775 29V28.9875ZM8.02499 8.9875V29L19.3875 35.5375V29.6L13.45 26.2375L13.4 26.1875C13.375 26.1875 13.3625 26.175 13.35 26.15L13.3 26.1L13.2625 26.05L13.2375 25.9875L13.2125 25.925V25.85L13.1875 25.7875V11.95L10.2 10.225L8.03749 8.975L8.02499 8.9875ZM13.7125 5.1125L8.54999 8.1L13.7125 11.0625L18.8625 8.1L13.7125 5.1125ZM16.375 23.6625L19.375 21.9375V8.975L17.2125 10.225L14.2125 11.95V24.9L16.375 23.65V23.6625ZM32.2875 8.6125L27.125 11.5875L32.2875 14.5625L37.45 11.5875L32.2875 8.6125ZM31.775 15.45L28.775 13.725L26.6125 12.475V18.35L29.6125 20.0875L31.775 21.3375V15.4625V15.45ZM19.9 28.7L27.475 24.3875L31.25 22.225L26.1 19.25L20.1625 22.675L14.75 25.7875L19.9 28.7Z"
            fill="#FF2D20" />
    </g>
    <path d="M45 0H154C157.314 0 160 2.68629 160 6V34C160 37.3137 157.314 40 154 40H45V0Z"
        fill="#FF2D20" />
    <path
        d="M59.7614 27V12.4545H61.5227V25.4375H68.2841V27H59.7614ZM72.5259 27H70.6793L76.0202 12.4545H77.8384L83.1793 27H81.3327L76.9862 14.7557H76.8725L72.5259 27ZM73.2077 21.3182H80.6509V22.8807H73.2077V21.3182ZM85.445 27V12.4545H90.3597C91.4961 12.4545 92.4289 12.6487 93.158 13.0369C93.8872 13.4205 94.427 13.9484 94.7773 14.6207C95.1277 15.2931 95.3029 16.0578 95.3029 16.9148C95.3029 17.7718 95.1277 18.5317 94.7773 19.1946C94.427 19.8575 93.8896 20.3783 93.1651 20.7571C92.4407 21.1312 91.515 21.3182 90.3881 21.3182H86.4109V19.7273H90.3313C91.1078 19.7273 91.7328 19.6136 92.2063 19.3864C92.6845 19.1591 93.0302 18.8371 93.2433 18.4205C93.4611 17.9991 93.57 17.4972 93.57 16.9148C93.57 16.3324 93.4611 15.8234 93.2433 15.3878C93.0255 14.9522 92.6774 14.616 92.1992 14.3793C91.721 14.1378 91.0889 14.017 90.3029 14.017H87.2063V27H85.445ZM92.2915 20.4659L95.8711 27H93.8256L90.3029 20.4659H92.2915ZM98.8345 27H96.9879L102.329 12.4545H104.147L109.488 27H107.641L103.295 14.7557H103.181L98.8345 27ZM99.5163 21.3182H106.96V22.8807H99.5163V21.3182ZM110.983 12.4545L115.301 24.6989H115.472L119.79 12.4545H121.636L116.295 27H114.477L109.136 12.4545H110.983ZM123.902 27V12.4545H132.68V14.017H125.663V18.9318H132.226V20.4943H125.663V25.4375H132.794V27H123.902ZM135.855 27V12.4545H137.616V25.4375H144.378V27H135.855Z"
        fill="white" />
    <defs>
        <clipPath id="clip0_3_77">
            <rect width="32" height="33" fill="white" transform="translate(7 4)" />
        </clipPath>
    </defs>
</svg>