<svg width="160" height="40" viewBox="0 0 160 40" fill="none" xmlns="http://www.w3.org/2000/svg">
    <rect width="160" height="40" rx="6" fill="white" />
    <path
        d="M9.42528 15.5594H13.9706C15.3046 15.5706 16.2714 15.9552 16.8707 16.7126C17.4701 17.4701 17.6678 18.5046 17.4643 19.8163C17.3853 20.4157 17.2099 21.0035 16.9386 21.5802C16.6748 22.1621 16.307 22.6908 15.8531 23.1405C15.2877 23.7283 14.6829 24.1014 14.0384 24.2598C13.3833 24.4194 12.7113 24.4992 12.0371 24.4973H10.0019L9.35744 27.7197H7L9.42528 15.5594ZM11.4096 17.4928L10.392 22.5808C10.4598 22.592 10.5277 22.5978 10.5955 22.5978H10.833C11.9184 22.609 12.823 22.5018 13.5466 22.2755C14.2701 22.0381 14.7565 21.2128 15.0051 19.7994C15.2086 18.6122 15.0051 17.928 14.3946 17.7472C13.7952 17.5664 13.0435 17.4816 12.1389 17.4928C12.0032 17.504 11.8733 17.5098 11.7488 17.5098H11.3926L11.4096 17.4928ZM20.1498 12.32H22.4902L21.8288 15.5594H23.9318C25.0851 15.5821 25.9443 15.8195 26.5098 16.2717C27.0864 16.7238 27.256 17.5834 27.0186 18.8496L25.8822 24.4973H23.5078L24.5933 19.104C24.7062 18.5386 24.6723 18.1373 24.4915 17.8998C24.3107 17.6624 23.9206 17.5437 23.3213 17.5437L21.4387 17.5267L20.048 24.4973H17.7075L20.1498 12.32ZM29.5318 15.5594H34.0771C35.4112 15.5706 36.3779 15.9552 36.9773 16.7126C37.5766 17.4701 37.7744 18.5046 37.5709 19.8163C37.4918 20.4157 37.3165 21.0035 37.0451 21.5802C36.7814 22.1621 36.4135 22.6908 35.9597 23.1405C35.3942 23.7283 34.7894 24.1014 34.145 24.2598C33.4899 24.4194 32.8179 24.4992 32.1437 24.4973H30.1085L29.464 27.7197H27.1066L29.5318 15.5594ZM31.5162 17.4928L30.4986 22.5808C30.5664 22.592 30.6342 22.5978 30.7021 22.5978H30.9395C32.025 22.609 32.9296 22.5018 33.6531 22.2755C34.3766 22.0381 34.863 21.2128 35.1117 19.7994C35.3152 18.6122 35.1117 17.928 34.5011 17.7472C33.9018 17.5664 33.1501 17.4816 32.2454 17.4928C32.1098 17.504 31.9798 17.5098 31.8554 17.5098H31.4992L31.5162 17.4928Z"
        fill="#777BB3" />
    <path d="M45 0H154C157.314 0 160 2.68629 160 6V34C160 37.3137 157.314 40 154 40H45V0Z"
        fill="#777BB3" />
    <path
        d="M83.7614 27V12.4545H88.6761C89.8172 12.4545 90.75 12.6605 91.4744 13.0724C92.2036 13.4796 92.7434 14.0312 93.0938 14.7273C93.4441 15.4233 93.6193 16.1998 93.6193 17.0568C93.6193 17.9138 93.4441 18.6927 93.0938 19.3935C92.7481 20.0942 92.2131 20.6529 91.4886 21.0696C90.7642 21.4815 89.8362 21.6875 88.7045 21.6875H85.1818V20.125H88.6477C89.429 20.125 90.0563 19.9901 90.5298 19.7202C91.0033 19.4503 91.3466 19.0857 91.5597 18.6264C91.7775 18.1624 91.8864 17.6392 91.8864 17.0568C91.8864 16.4744 91.7775 15.9536 91.5597 15.4943C91.3466 15.035 91.0009 14.6752 90.5227 14.4148C90.0445 14.1496 89.41 14.017 88.6193 14.017H85.5227V27H83.7614ZM96.4567 27V12.4545H98.218V18.9318H105.974V12.4545H107.735V27H105.974V20.4943H98.218V27H96.4567ZM111.261 27V12.4545H116.176C117.317 12.4545 118.25 12.6605 118.974 13.0724C119.704 13.4796 120.243 14.0312 120.594 14.7273C120.944 15.4233 121.119 16.1998 121.119 17.0568C121.119 17.9138 120.944 18.6927 120.594 19.3935C120.248 20.0942 119.713 20.6529 118.989 21.0696C118.264 21.4815 117.336 21.6875 116.205 21.6875H112.682V20.125H116.148C116.929 20.125 117.556 19.9901 118.03 19.7202C118.503 19.4503 118.847 19.0857 119.06 18.6264C119.277 18.1624 119.386 17.6392 119.386 17.0568C119.386 16.4744 119.277 15.9536 119.06 15.4943C118.847 15.035 118.501 14.6752 118.023 14.4148C117.545 14.1496 116.91 14.017 116.119 14.017H113.023V27H111.261Z"
        fill="white" />
</svg>    