<svg width="120" height="30" viewBox="0 0 120 30" fill="none" xmlns="http://www.w3.org/2000/svg">
    <rect width="120" height="30" rx="6" fill="white" />
    <g clip-path="url(#clip0_3_98)">
        <path
            d="M7.06896 11.6695H10.4779C11.4785 11.6779 12.2035 11.9664 12.653 12.5345C13.1026 13.1026 13.2509 13.8785 13.0982 14.8622C13.039 15.3118 12.9074 15.7526 12.7039 16.1851C12.5061 16.6215 12.2302 17.0181 11.8898 17.3554C11.4658 17.7962 11.0122 18.0761 10.5288 18.1949C10.0375 18.3146 9.53351 18.3744 9.02784 18.373H7.50144L7.01808 20.7898H5.25L7.06896 11.6695ZM8.5572 13.1196L7.794 16.9356C7.84488 16.944 7.89576 16.9483 7.94664 16.9483H8.12472C8.9388 16.9567 9.61728 16.8763 10.1599 16.7066C10.7026 16.5286 11.0674 15.9096 11.2538 14.8495C11.4065 13.9591 11.2538 13.446 10.7959 13.3104C10.3464 13.1748 9.78264 13.1112 9.10416 13.1196C9.0024 13.128 8.90496 13.1323 8.8116 13.1323H8.54448L8.5572 13.1196ZM15.1123 9.24H16.8677L16.3716 11.6695H17.9489C18.8138 11.6866 19.4582 11.8646 19.8823 12.2038C20.3148 12.5429 20.442 13.1875 20.2639 14.1372L19.4117 18.373H17.6309L18.445 14.328C18.5297 13.9039 18.5042 13.603 18.3686 13.4249C18.233 13.2468 17.9405 13.1578 17.491 13.1578L16.079 13.145L15.036 18.373H13.2806L15.1123 9.24ZM22.1489 11.6695H25.5578C26.5584 11.6779 27.2834 11.9664 27.733 12.5345C28.1825 13.1026 28.3308 13.8785 28.1782 14.8622C28.1189 15.3118 27.9874 15.7526 27.7838 16.1851C27.586 16.6215 27.3101 17.0181 26.9698 17.3554C26.5457 17.7962 26.0921 18.0761 25.6087 18.1949C25.1174 18.3146 24.6134 18.3744 24.1078 18.373H22.5814L22.098 20.7898H20.3299L22.1489 11.6695ZM23.6371 13.1196L22.8739 16.9356C22.9248 16.944 22.9757 16.9483 23.0266 16.9483H23.2046C24.0187 16.9567 24.6972 16.8763 25.2398 16.7066C25.7825 16.5286 26.1473 15.9096 26.3338 14.8495C26.4864 13.9591 26.3338 13.446 25.8758 13.3104C25.4263 13.1748 24.8626 13.1112 24.1841 13.1196C24.0823 13.128 23.9849 13.1323 23.8915 13.1323H23.6244L23.6371 13.1196Z"
            fill="#777BB3" />
    </g>
    <path d="M33.75 0H114C117.314 0 120 2.68629 120 6V24C120 27.3137 117.314 30 114 30H33.75V0Z"
        fill="#777BB3" />
    <path
        d="M65.2191 19V10.2727H68.8242C69.4776 10.2727 70.0415 10.4006 70.516 10.6562C70.9933 10.9091 71.3612 11.2628 71.6197 11.7173C71.8782 12.169 72.0075 12.6946 72.0075 13.294C72.0075 13.8963 71.8754 14.4233 71.6112 14.875C71.3498 15.3239 70.9762 15.6719 70.4904 15.919C70.0046 16.1662 69.4279 16.2898 68.7603 16.2898H66.5359V14.6278H68.3683C68.6864 14.6278 68.9521 14.5724 69.1651 14.4616C69.381 14.3509 69.5444 14.196 69.6552 13.9972C69.766 13.7955 69.8214 13.5611 69.8214 13.294C69.8214 13.0241 69.766 12.7912 69.6552 12.5952C69.5444 12.3963 69.381 12.2429 69.1651 12.1349C68.9492 12.027 68.6836 11.973 68.3683 11.973H67.3285V19H65.2191ZM73.0472 19V10.2727H75.1566V13.7756H78.5955V10.2727H80.7006V19H78.5955V15.4929H75.1566V19H73.0472ZM82.0238 19V10.2727H85.6289C86.2823 10.2727 86.8462 10.4006 87.3207 10.6562C87.7979 10.9091 88.1658 11.2628 88.4244 11.7173C88.6829 12.169 88.8121 12.6946 88.8121 13.294C88.8121 13.8963 88.68 14.4233 88.4158 14.875C88.1545 15.3239 87.7809 15.6719 87.2951 15.919C86.8093 16.1662 86.2326 16.2898 85.565 16.2898H83.3406V14.6278H85.1729C85.4911 14.6278 85.7567 14.5724 85.9698 14.4616C86.1857 14.3509 86.3491 14.196 86.4599 13.9972C86.5707 13.7955 86.6261 13.5611 86.6261 13.294C86.6261 13.0241 86.5707 12.7912 86.4599 12.5952C86.3491 12.3963 86.1857 12.2429 85.9698 12.1349C85.7539 12.027 85.4883 11.973 85.1729 11.973H84.1332V19H82.0238Z"
        fill="white" />
    <defs>
        <clipPath id="clip0_3_98">
            <rect width="24" height="12" fill="white" transform="translate(5.25 9)" />
        </clipPath>
    </defs>
</svg>
    