<svg width="160" height="40" viewBox="0 0 160 40" fill="none" xmlns="http://www.w3.org/2000/svg">
    <rect width="160" height="40" rx="6" fill="white" />
    <path d="M45 0H154C157.314 0 160 2.68629 160 6V34C160 37.3137 157.314 40 154 40H45V0Z"
        fill="#3772A2" />
    <path
        d="M61.7614 27V12.4545H66.6761C67.8172 12.4545 68.75 12.6605 69.4744 13.0724C70.2036 13.4796 70.7434 14.0312 71.0938 14.7273C71.4441 15.4233 71.6193 16.1998 71.6193 17.0568C71.6193 17.9138 71.4441 18.6927 71.0938 19.3935C70.7481 20.0942 70.2131 20.6529 69.4886 21.0696C68.7642 21.4815 67.8362 21.6875 66.7045 21.6875H63.1818V20.125H66.6477C67.429 20.125 68.0563 19.9901 68.5298 19.7202C69.0033 19.4503 69.3466 19.0857 69.5597 18.6264C69.7775 18.1624 69.8864 17.6392 69.8864 17.0568C69.8864 16.4744 69.7775 15.9536 69.5597 15.4943C69.3466 15.035 69.0009 14.6752 68.5227 14.4148C68.0445 14.1496 67.41 14.017 66.6193 14.017H63.5227V27H61.7614ZM73.2067 12.4545H75.2237L79.2578 19.2443H79.4283L83.4624 12.4545H85.4794L80.2237 21.0057V27H78.4624V21.0057L73.2067 12.4545ZM87.88 14.017V12.4545H98.7891V14.017H94.2152V27H92.4538V14.017H87.88ZM101.507 27V12.4545H103.269V18.9318H111.025V12.4545H112.786V27H111.025V20.4943H103.269V27H101.507ZM128.585 19.7273C128.585 21.2614 128.308 22.5871 127.754 23.7045C127.2 24.822 126.44 25.6837 125.474 26.2898C124.508 26.8958 123.405 27.1989 122.164 27.1989C120.924 27.1989 119.821 26.8958 118.855 26.2898C117.889 25.6837 117.129 24.822 116.575 23.7045C116.021 22.5871 115.744 21.2614 115.744 19.7273C115.744 18.1932 116.021 16.8674 116.575 15.75C117.129 14.6326 117.889 13.7708 118.855 13.1648C119.821 12.5587 120.924 12.2557 122.164 12.2557C123.405 12.2557 124.508 12.5587 125.474 13.1648C126.44 13.7708 127.2 14.6326 127.754 15.75C128.308 16.8674 128.585 18.1932 128.585 19.7273ZM126.88 19.7273C126.88 18.4678 126.67 17.4048 126.248 16.5384C125.832 15.6719 125.266 15.0161 124.551 14.571C123.841 14.1259 123.045 13.9034 122.164 13.9034C121.284 13.9034 120.486 14.1259 119.771 14.571C119.061 15.0161 118.495 15.6719 118.074 16.5384C117.657 17.4048 117.449 18.4678 117.449 19.7273C117.449 20.9867 117.657 22.0497 118.074 22.9162C118.495 23.7827 119.061 24.4384 119.771 24.8835C120.486 25.3286 121.284 25.5511 122.164 25.5511C123.045 25.5511 123.841 25.3286 124.551 24.8835C125.266 24.4384 125.832 23.7827 126.248 22.9162C126.67 22.0497 126.88 20.9867 126.88 19.7273ZM143.081 12.4545V27H141.376L133.45 15.5795H133.308V27H131.547V12.4545H133.251L141.206 23.9034H141.348V12.4545H143.081Z"
        fill="white" />
    <path
        d="M22.9317 10.5C18.1081 10.5 18.4091 12.5918 18.4091 12.5918L18.4151 14.759H23.0178V15.4091H16.5857C16.5857 15.4091 13.5 15.0588 13.5 19.9264C13.5 24.7927 16.1938 24.6206 16.1938 24.6206H17.8017V22.3619C17.8017 22.3619 17.715 19.6681 20.4528 19.6681H25.0176C25.0176 19.6681 27.5826 19.7097 27.5826 17.1892V13.0217C27.5826 13.0217 27.9721 10.5 22.9317 10.5ZM20.3934 11.9571C20.6131 11.9571 20.8238 12.0443 20.9791 12.1997C21.1345 12.355 21.2217 12.5657 21.2217 12.7853C21.2217 13.005 21.1345 13.2157 20.9791 13.371C20.8238 13.5264 20.6131 13.6136 20.3934 13.6136C20.2846 13.6138 20.1768 13.5925 20.0763 13.5509C19.9757 13.5093 19.8843 13.4483 19.8074 13.3714C19.7305 13.2944 19.6695 13.2031 19.6279 13.1025C19.5863 13.0019 19.565 12.8942 19.5652 12.7853C19.5652 12.3276 19.9357 11.9571 20.3934 11.9571Z"
        fill="url(#paint0_linear_3_99)" />
    <path
        d="M23.0683 29.4008C27.8919 29.4008 27.5909 27.3091 27.5909 27.3091L27.5849 25.1419H22.9822V24.4917H29.4137C29.4137 24.4917 32.5 24.842 32.5 19.9751C32.5 15.1081 29.8062 15.2809 29.8062 15.2809H28.1983V17.5389C28.1983 17.5389 28.285 20.2327 25.5472 20.2327H20.9824C20.9824 20.2327 18.4174 20.1912 18.4174 22.7117V26.8792C18.4174 26.8792 18.0279 29.4008 23.0683 29.4008ZM25.6066 27.9438C25.4978 27.9439 25.39 27.9226 25.2894 27.8811C25.1889 27.8395 25.0975 27.7785 25.0205 27.7015C24.9436 27.6246 24.8826 27.5332 24.841 27.4327C24.7994 27.3321 24.7781 27.2243 24.7783 27.1155C24.7784 26.9519 24.827 26.7919 24.918 26.6559C25.009 26.5199 25.1383 26.4139 25.2895 26.3513C25.4407 26.2887 25.6071 26.2724 25.7676 26.3043C25.9281 26.3363 26.0755 26.4151 26.1912 26.5308C26.307 26.6465 26.3858 26.794 26.4177 26.9545C26.4497 27.115 26.4333 27.2813 26.3708 27.4326C26.3082 27.5838 26.2022 27.7131 26.0662 27.804C25.9302 27.895 25.7702 27.9437 25.6066 27.9438Z"
        fill="url(#paint1_linear_3_99)" />
    <defs>
        <linearGradient id="paint0_linear_3_99" x1="15.3258" y1="12.1518" x2="24.7207" y2="21.5782"
            gradientUnits="userSpaceOnUse">
            <stop stop-color="#387EB8" />
            <stop offset="1" stop-color="#366994" />
        </linearGradient>
        <linearGradient id="paint1_linear_3_99" x1="21.1053" y1="18.1487" x2="31.1955" y2="27.8155"
            gradientUnits="userSpaceOnUse">
            <stop stop-color="#FFE052" />
            <stop offset="1" stop-color="#FFC331" />
        </linearGradient>
    </defs>
</svg>
    