<svg width="120" height="30" viewBox="0 0 120 30" fill="none" xmlns="http://www.w3.org/2000/svg">
    <rect width="120" height="30" rx="6" fill="white" />
    <path d="M33.75 0H114C117.314 0 120 2.68629 120 6V24C120 27.3137 117.314 30 114 30H33.75V0Z"
        fill="#3772A2" />
    <path
        d="M51.2211 19V10.2727H54.8262C55.4796 10.2727 56.0435 10.4006 56.5179 10.6562C56.9952 10.9091 57.3631 11.2628 57.6216 11.7173C57.8801 12.169 58.0094 12.6946 58.0094 13.294C58.0094 13.8963 57.8773 14.4233 57.6131 14.875C57.3517 15.3239 56.9782 15.6719 56.4924 15.919C56.0066 16.1662 55.4299 16.2898 54.7623 16.2898H52.5378V14.6278H54.3702C54.6884 14.6278 54.954 14.5724 55.1671 14.4616C55.383 14.3509 55.5463 14.196 55.6571 13.9972C55.7679 13.7955 55.8233 13.5611 55.8233 13.294C55.8233 13.0241 55.7679 12.7912 55.6571 12.5952C55.5463 12.3963 55.383 12.2429 55.1671 12.1349C54.9512 12.027 54.6855 11.973 54.3702 11.973H53.3304V19H51.2211ZM58.6145 10.2727H60.9711L62.8162 13.9247H62.8929L64.7381 10.2727H67.0946L63.9029 16.0852V19H61.8063V16.0852L58.6145 10.2727ZM68.2441 11.9858V10.2727H75.6206V11.9858H72.9743V19H70.8947V11.9858H68.2441ZM76.6507 19V10.2727H78.7601V13.7756H82.199V10.2727H84.3042V19H82.199V15.4929H78.7601V19H76.6507ZM93.8645 14.6364C93.8645 15.5966 93.6799 16.4105 93.3105 17.0781C92.9412 17.7457 92.4412 18.2528 91.8105 18.5994C91.1827 18.946 90.4782 19.1193 89.6969 19.1193C88.9128 19.1193 88.2069 18.9446 87.579 18.5952C86.9512 18.2457 86.4526 17.7386 86.0833 17.0739C85.7168 16.4062 85.5336 15.5937 85.5336 14.6364C85.5336 13.6761 85.7168 12.8622 86.0833 12.1946C86.4526 11.527 86.9512 11.0199 87.579 10.6733C88.2069 10.3267 88.9128 10.1534 89.6969 10.1534C90.4782 10.1534 91.1827 10.3267 91.8105 10.6733C92.4412 11.0199 92.9412 11.527 93.3105 12.1946C93.6799 12.8622 93.8645 13.6761 93.8645 14.6364ZM91.7083 14.6364C91.7083 14.0682 91.6273 13.5881 91.4654 13.196C91.3063 12.804 91.0762 12.5071 90.775 12.3054C90.4767 12.1037 90.1174 12.0028 89.6969 12.0028C89.2793 12.0028 88.9199 12.1037 88.6188 12.3054C88.3176 12.5071 88.0861 12.804 87.9242 13.196C87.7651 13.5881 87.6855 14.0682 87.6855 14.6364C87.6855 15.2045 87.7651 15.6847 87.9242 16.0767C88.0861 16.4687 88.3176 16.7656 88.6188 16.9673C88.9199 17.169 89.2793 17.2699 89.6969 17.2699C90.1174 17.2699 90.4767 17.169 90.775 16.9673C91.0762 16.7656 91.3063 16.4687 91.4654 16.0767C91.6273 15.6847 91.7083 15.2045 91.7083 14.6364ZM102.524 10.2727V19H100.734L97.2608 13.9631H97.2054V19H95.0961V10.2727H96.9114L100.346 15.3011H100.419V10.2727H102.524Z"
        fill="white" />
    <path
        d="M17.1988 7.875C13.5811 7.875 13.8068 9.44384 13.8068 9.44384L13.8113 11.0692H17.2634V11.5568H12.4393C12.4393 11.5568 10.125 11.2941 10.125 14.9448C10.125 18.5946 12.1454 18.4654 12.1454 18.4654H13.3513V16.7715C13.3513 16.7715 13.2863 14.7511 15.3396 14.7511H18.7632C18.7632 14.7511 20.6869 14.7822 20.6869 12.8919V9.76624C20.6869 9.76624 20.979 7.875 17.1988 7.875ZM15.2951 8.9678C15.4598 8.9678 15.6178 9.03325 15.7343 9.14975C15.8508 9.26625 15.9163 9.42425 15.9163 9.58901C15.9163 9.75376 15.8508 9.91177 15.7343 10.0283C15.6178 10.1448 15.4598 10.2102 15.2951 10.2102C15.2135 10.2103 15.1326 10.1943 15.0572 10.1632C14.9818 10.132 14.9133 10.0862 14.8556 10.0285C14.7978 9.97082 14.7521 9.90229 14.7209 9.82687C14.6897 9.75145 14.6737 9.67062 14.6739 9.58901C14.6739 9.24567 14.9517 8.9678 15.2951 8.9678Z"
        fill="url(#paint0_linear_3_99)" />
    <path
        d="M17.3012 22.0506C20.9189 22.0506 20.6931 20.4818 20.6931 20.4818L20.6887 18.8564H17.2366V18.3688H22.0603C22.0603 18.3688 24.375 18.6315 24.375 14.9813C24.375 11.3311 22.3546 11.4607 22.3546 11.4607H21.1487V13.1542C21.1487 13.1542 21.2137 15.1746 19.1604 15.1746H15.7368C15.7368 15.1746 13.8131 15.1434 13.8131 17.0337V20.1594C13.8131 20.1594 13.5209 22.0506 17.3012 22.0506ZM19.2049 20.9578C19.1233 20.958 19.0425 20.942 18.967 20.9108C18.8916 20.8796 18.8231 20.8339 18.7654 20.7761C18.7077 20.7184 18.6619 20.6499 18.6307 20.5745C18.5996 20.4991 18.5836 20.4182 18.5837 20.3366C18.5838 20.2139 18.6203 20.0939 18.6885 19.9919C18.7567 19.8899 18.8537 19.8104 18.9671 19.7635C19.0805 19.7165 19.2053 19.7043 19.3257 19.7283C19.4461 19.7522 19.5566 19.8113 19.6434 19.8981C19.7302 19.9849 19.7893 20.0955 19.8133 20.2159C19.8372 20.3362 19.825 20.461 19.7781 20.5744C19.7311 20.6878 19.6516 20.7848 19.5496 20.853C19.4476 20.9213 19.3276 20.9577 19.2049 20.9578Z"
        fill="url(#paint1_linear_3_99)" />
    <defs>
        <linearGradient id="paint0_linear_3_99" x1="11.4943" y1="9.11386" x2="18.5405" y2="16.1836"
            gradientUnits="userSpaceOnUse">
            <stop stop-color="#387EB8" />
            <stop offset="1" stop-color="#366994" />
        </linearGradient>
        <linearGradient id="paint1_linear_3_99" x1="15.829" y1="13.6115" x2="23.3966" y2="20.8616"
            gradientUnits="userSpaceOnUse">
            <stop stop-color="#FFE052" />
            <stop offset="1" stop-color="#FFC331" />
        </linearGradient>
    </defs>
</svg>    