<svg width="160" height="40" viewBox="0 0 160 40" fill="none" xmlns="http://www.w3.org/2000/svg">
<rect width="160" height="40" rx="6" fill="white"/>
<path d="M34.5992 14.3815C34.2161 14.25 33.8297 14.1283 33.4404 14.0163C33.5058 13.7491 33.566 13.4851 33.6194 13.2258C34.4967 8.96755 33.9232 5.53701 31.9644 4.40751C30.0864 3.32469 27.015 4.45377 23.9131 7.15335C23.6074 7.41988 23.3084 7.69409 23.0166 7.97573C22.8212 7.78845 22.6224 7.60481 22.4202 7.4249C19.1692 4.53843 15.9107 3.32188 13.954 4.45462C12.0777 5.5408 11.522 8.76576 12.3118 12.8014C12.3904 13.2011 12.4791 13.5987 12.5779 13.9939C12.1166 14.125 11.6715 14.2645 11.2456 14.413C7.43408 15.7419 5 17.8244 5 19.9845C5 22.2156 7.61309 24.4533 11.5829 25.8102C11.9048 25.9198 12.2293 26.0213 12.5562 26.1147C12.45 26.5403 12.3558 26.9688 12.2735 27.3997C11.5206 31.3653 12.1086 34.5141 13.9799 35.5934C15.9126 36.7079 19.1566 35.5624 22.3152 32.8012C22.5713 32.5768 22.8218 32.3459 23.0664 32.1089C23.3824 32.4139 23.7069 32.71 24.0395 32.9969C27.0992 35.6296 30.121 36.6928 31.9904 35.6105C33.9214 34.4927 34.549 31.1101 33.7342 26.9947C33.67 26.6723 33.598 26.3515 33.5183 26.0325C33.7461 25.965 33.9697 25.8956 34.1877 25.8233C38.3148 24.456 41 22.2454 41 19.9845C41 17.8165 38.4873 15.7199 34.5992 14.3815ZM33.7041 24.3636C33.5072 24.4287 33.3053 24.4916 33.0994 24.5527C32.6438 23.1104 32.029 21.5767 31.2765 19.992C31.9945 18.4451 32.5857 16.931 33.0285 15.498C33.3968 15.6046 33.7542 15.717 34.0987 15.8355C37.4301 16.9825 39.4621 18.678 39.4621 19.9845C39.4621 21.3762 37.2675 23.1828 33.7041 24.3636ZM32.2256 27.2934C32.5858 29.1131 32.6372 30.7584 32.3985 32.0447C32.1842 33.2005 31.7531 33.971 31.2198 34.2796C30.0854 34.9364 27.6592 34.0828 25.0426 31.8311C24.7333 31.5644 24.4314 31.2891 24.1374 31.0056C25.1518 29.8962 26.1656 28.6065 27.155 27.1741C28.8954 27.0197 30.5396 26.7672 32.0307 26.4225C32.1041 26.7188 32.1693 27.0093 32.2256 27.2934ZM17.2732 34.1662C16.1648 34.5575 15.2819 34.5688 14.7483 34.2611C13.6127 33.6062 13.1406 31.0779 13.7846 27.6866C13.8611 27.2858 13.9487 26.8873 14.0474 26.4914C15.522 26.8177 17.1542 27.0522 18.8987 27.1937C19.8949 28.5953 20.9379 29.8836 21.989 31.0117C21.7657 31.2278 21.537 31.4384 21.3032 31.6433C19.9064 32.8642 18.5068 33.7305 17.2732 34.1662ZM12.0805 24.355C10.325 23.755 8.87534 22.9752 7.88169 22.1243C6.98872 21.3597 6.53802 20.6005 6.53802 19.9845C6.53802 18.6736 8.49228 17.0016 11.7518 15.8652C12.1474 15.7274 12.5614 15.5973 12.991 15.4753C13.4416 16.9406 14.0325 18.4727 14.7456 20.0219C14.0232 21.5941 13.4239 23.1507 12.9689 24.6333C12.6705 24.5478 12.3743 24.4551 12.0805 24.355ZM13.8211 12.506C13.1446 9.04841 13.5939 6.44024 14.7246 5.78563C15.929 5.08841 18.5921 6.08249 21.3991 8.57493C21.5822 8.73783 21.7622 8.90403 21.9393 9.07344C20.8933 10.1966 19.8598 11.4753 18.8725 12.8686C17.1794 13.0256 15.5587 13.2776 14.0686 13.6152C13.9768 13.2476 13.8943 12.8777 13.8211 12.506ZM29.3499 16.3405C28.998 15.7326 28.633 15.1323 28.2552 14.5401C29.4038 14.6854 30.5043 14.8782 31.5378 15.1139C31.2275 16.1084 30.8408 17.148 30.3856 18.2139C30.0529 17.5826 29.7076 16.958 29.3499 16.3405ZM23.0173 10.1726C23.7266 10.9411 24.437 11.799 25.1358 12.73C23.7183 12.663 22.2984 12.6627 20.8809 12.7291C21.5804 11.8068 22.2969 10.9499 23.0173 10.1726ZM16.644 16.3511C16.2908 16.9636 15.952 17.5843 15.6277 18.2127C15.18 17.1505 14.7968 16.1061 14.4839 15.0975C15.511 14.8678 16.6063 14.6799 17.7477 14.5373C17.3656 15.1331 16.9977 15.738 16.644 16.3511ZM17.7804 25.5412C16.6013 25.4096 15.4895 25.2314 14.4627 25.0078C14.7805 23.9812 15.1721 22.9146 15.6296 21.8297C15.9551 22.4585 16.2954 23.0796 16.6501 23.6924C17.0149 24.3224 17.3926 24.9395 17.7804 25.5412ZM23.0598 29.9048C22.3308 29.1184 21.6037 28.2484 20.8937 27.3127C21.5831 27.3397 22.2858 27.3534 23 27.3534C23.7338 27.3534 24.4591 27.337 25.1731 27.3052C24.4721 28.2578 23.7643 29.1291 23.0598 29.9048ZM30.4001 21.7743C30.8813 22.8711 31.2869 23.9322 31.6089 24.9411C30.5652 25.1794 29.4382 25.3712 28.2508 25.5136C28.6313 24.9104 28.9998 24.2997 29.356 23.6819C29.7181 23.0538 30.0663 22.4178 30.4001 21.7743ZM28.0238 22.9135C27.4785 23.8608 26.9025 24.7901 26.2968 25.7C25.1996 25.7777 24.1 25.8163 23 25.8157C21.8796 25.8157 20.7899 25.7808 19.7406 25.7128C19.1191 24.805 18.5321 23.8741 17.981 22.9219C17.4324 21.9748 16.9202 21.0072 16.445 20.0212C16.9189 19.035 17.4298 18.067 17.9765 17.1192L17.9763 17.1193C18.5228 16.1712 19.1051 15.2443 19.7219 14.3404C20.7925 14.2594 21.8903 14.2172 22.9999 14.2172C24.1145 14.2172 25.2139 14.2598 26.2842 14.3414C26.8948 15.2439 27.4733 16.1677 28.0188 17.111C28.5673 18.0567 29.0848 19.0201 29.5707 19.9994C29.0898 20.9888 28.5739 21.9608 28.0238 22.9135ZM31.1963 5.73979C32.4018 6.43504 32.8706 9.23868 32.1132 12.9153C32.0648 13.1499 32.0105 13.3888 31.9515 13.6311C30.4578 13.2863 28.8359 13.0299 27.1379 12.8706C26.1487 11.462 25.1237 10.1813 24.0948 9.0726C24.3644 8.81266 24.6405 8.55945 24.9228 8.31323C27.5806 6.00037 30.0646 5.08715 31.1963 5.73979ZM23 16.7699C24.7754 16.7699 26.2147 18.2091 26.2147 19.9845C26.2147 21.7599 24.7754 23.1992 23 23.1992C21.2246 23.1992 19.7853 21.7599 19.7853 19.9845C19.7853 18.2091 21.2246 16.7699 23 16.7699Z" fill="#00D8FF"/>
<path d="M63.1136 29V11.5455H69.0114C70.375 11.5455 71.4943 11.7784 72.3693 12.2443C73.2443 12.7045 73.892 13.3381 74.3125 14.1449C74.733 14.9517 74.9432 15.8693 74.9432 16.8977C74.9432 17.9261 74.733 18.8381 74.3125 19.6335C73.892 20.429 73.2472 21.054 72.3778 21.5085C71.5085 21.9574 70.3977 22.1818 69.0455 22.1818H64.2727V20.2727H68.9773C69.9091 20.2727 70.6591 20.1364 71.2273 19.8636C71.8011 19.5909 72.2159 19.2045 72.4716 18.7045C72.733 18.1989 72.8636 17.5966 72.8636 16.8977C72.8636 16.1989 72.733 15.5881 72.4716 15.0653C72.2102 14.5426 71.7926 14.1392 71.2188 13.8551C70.6449 13.5653 69.8864 13.4205 68.9432 13.4205H65.2273V29H63.1136ZM71.3295 21.1591L75.625 29H73.1705L68.9432 21.1591H71.3295ZM78.4652 29V11.5455H88.9993V13.4205H80.5788V19.3182H88.4538V21.1932H80.5788V27.125H89.1357V29H78.4652ZM93.5249 29H91.3089L97.718 11.5455H99.8999L106.309 29H104.093L98.8771 14.3068H98.7408L93.5249 29ZM94.343 22.1818H103.275V24.0568H94.343V22.1818ZM122.253 17H120.139C120.014 16.392 119.795 15.858 119.483 15.3977C119.176 14.9375 118.801 14.5511 118.358 14.2386C117.92 13.9205 117.435 13.6818 116.901 13.5227C116.366 13.3636 115.81 13.2841 115.23 13.2841C114.173 13.2841 113.216 13.5511 112.358 14.0852C111.506 14.6193 110.827 15.4062 110.321 16.446C109.821 17.4858 109.571 18.7614 109.571 20.2727C109.571 21.7841 109.821 23.0597 110.321 24.0994C110.827 25.1392 111.506 25.9261 112.358 26.4602C113.216 26.9943 114.173 27.2614 115.23 27.2614C115.81 27.2614 116.366 27.1818 116.901 27.0227C117.435 26.8636 117.92 26.6278 118.358 26.3153C118.801 25.9972 119.176 25.608 119.483 25.1477C119.795 24.6818 120.014 24.1477 120.139 23.5455H122.253C122.094 24.4375 121.804 25.2358 121.384 25.9403C120.963 26.6449 120.44 27.2443 119.815 27.7386C119.19 28.2273 118.489 28.5994 117.71 28.8551C116.938 29.1108 116.111 29.2386 115.23 29.2386C113.741 29.2386 112.418 28.875 111.259 28.1477C110.099 27.4205 109.188 26.3864 108.523 25.0455C107.858 23.7045 107.526 22.1136 107.526 20.2727C107.526 18.4318 107.858 16.8409 108.523 15.5C109.188 14.1591 110.099 13.125 111.259 12.3977C112.418 11.6705 113.741 11.3068 115.23 11.3068C116.111 11.3068 116.938 11.4347 117.71 11.6903C118.489 11.946 119.19 12.321 119.815 12.8153C120.44 13.304 120.963 13.9006 121.384 14.6051C121.804 15.304 122.094 16.1023 122.253 17ZM124.714 13.4205V11.5455H137.805V13.4205H132.316V29H130.202V13.4205H124.714Z" fill="black" fill-opacity="0.533333"/>
</svg>
