<svg width="120" height="30" viewBox="0 0 120 30" fill="none" xmlns="http://www.w3.org/2000/svg">
    <rect width="120" height="30" rx="6" fill="white" />
    <path
        d="M24.9828 11.421C24.7274 11.3334 24.4698 11.2522 24.2103 11.1775C24.2539 10.9994 24.294 10.8234 24.3296 10.6505C24.9144 7.8117 24.5321 5.52467 23.2263 4.77167C21.9742 4.0498 19.9267 4.80251 17.8587 6.60223C17.6549 6.77992 17.4556 6.96273 17.2611 7.15048C17.1308 7.02563 16.9983 6.90321 16.8635 6.78327C14.6962 4.85895 12.5238 4.04792 11.2193 4.80308C9.96844 5.5272 9.59803 7.67717 10.1245 10.3676C10.1769 10.6341 10.2361 10.8992 10.3019 11.1626C9.99441 11.25 9.69769 11.343 9.41372 11.442C6.87272 12.3279 5.25 13.7163 5.25 15.1564C5.25 16.6437 6.99206 18.1355 9.63863 19.0401C9.85319 19.1132 10.0695 19.1809 10.2875 19.2431C10.2167 19.5269 10.1539 19.8125 10.099 20.0998C9.59709 22.7435 9.98906 24.8427 11.2366 25.5622C12.5251 26.3053 14.6877 25.5416 16.7934 23.7008C16.9642 23.5512 17.1312 23.3973 17.2943 23.2393C17.505 23.4426 17.7213 23.64 17.943 23.8312C19.9828 25.5864 21.9973 26.2952 23.2436 25.5737C24.5309 24.8285 24.9493 22.5734 24.4061 19.8298C24.3633 19.6149 24.3154 19.401 24.2622 19.1884C24.4141 19.1434 24.5632 19.097 24.7085 19.0489C27.4598 18.1373 29.25 16.6636 29.25 15.1564C29.25 13.711 27.5749 12.3133 24.9828 11.421ZM24.3861 18.0757C24.2548 18.1191 24.1202 18.161 23.9829 18.2018C23.6792 17.2402 23.2693 16.2178 22.7677 15.1613C23.2463 14.1301 23.6405 13.1207 23.9357 12.1654C24.1812 12.2364 24.4194 12.3113 24.6491 12.3904C26.8701 13.155 28.2247 14.2853 28.2247 15.1564C28.2247 16.0841 26.7617 17.2885 24.3861 18.0757ZM23.4004 20.0289C23.6406 21.242 23.6748 22.3389 23.5157 23.1965C23.3728 23.967 23.0854 24.4806 22.7299 24.6864C21.9736 25.1242 20.3561 24.5552 18.6117 23.054C18.4055 22.8762 18.2043 22.6927 18.0082 22.5037C18.6846 21.7641 19.3604 20.9044 20.02 19.9494C21.1803 19.8465 22.2764 19.6781 23.2704 19.4483C23.3194 19.6459 23.3629 19.8395 23.4004 20.0289ZM13.4321 24.6108C12.6932 24.8717 12.1046 24.8792 11.7488 24.674C10.9918 24.2375 10.6771 22.5519 11.1064 20.291C11.1574 20.0239 11.2158 19.7582 11.2816 19.4943C12.2647 19.7118 13.3528 19.8681 14.5158 19.9625C15.1799 20.8969 15.8752 21.7557 16.576 22.5078C16.4271 22.6519 16.2747 22.7923 16.1188 22.9289C15.1876 23.7428 14.2545 24.3203 13.4321 24.6108ZM9.97031 18.07C8.80003 17.67 7.83356 17.1501 7.17113 16.5829C6.57581 16.0731 6.27534 15.567 6.27534 15.1564C6.27534 14.2824 7.57819 13.1677 9.75122 12.4101C10.0149 12.3183 10.2909 12.2315 10.5773 12.1502C10.8777 13.127 11.2717 14.1485 11.7471 15.1813C11.2655 16.2294 10.8659 17.2671 10.5626 18.2555C10.3637 18.1986 10.1662 18.1367 9.97031 18.07ZM11.1308 10.1706C10.6797 7.86561 10.9792 6.12683 11.7331 5.69042C12.536 5.22561 14.3114 5.88833 16.1827 7.54995C16.3048 7.65855 16.4248 7.76935 16.5428 7.8823C15.8455 8.63108 15.1566 9.48355 14.4983 10.4124C13.3696 10.517 12.2891 10.685 11.2957 10.9101C11.2345 10.6651 11.1795 10.4185 11.1308 10.1706ZM21.4833 12.727C21.2486 12.3217 21.0053 11.9215 20.7534 11.5267C21.5192 11.6236 22.2529 11.7521 22.9418 11.9092C22.735 12.5722 22.4772 13.2653 22.1738 13.976C21.9519 13.5551 21.7217 13.1387 21.4833 12.727ZM17.2615 8.61505C17.7344 9.12739 18.208 9.69936 18.6739 10.32C17.7289 10.2754 16.7823 10.2752 15.8373 10.3194C16.3036 9.70452 16.7813 9.1333 17.2615 8.61505ZM13.0127 12.734C12.7772 13.1424 12.5513 13.5562 12.3352 13.9751C12.0367 13.267 11.7812 12.5707 11.5726 11.8984C12.2573 11.7452 12.9876 11.6199 13.7484 11.5249C13.4938 11.9221 13.2484 12.3253 13.0127 12.734ZM13.7703 18.8608C12.9842 18.773 12.243 18.6543 11.5584 18.5052C11.7703 17.8208 12.0314 17.1097 12.3364 16.3865C12.5534 16.8057 12.7802 17.2197 13.0167 17.6283C13.2599 18.0483 13.5117 18.4596 13.7703 18.8608ZM17.2898 21.7699C16.8038 21.2456 16.3192 20.6656 15.8458 20.0418C16.3054 20.0598 16.7738 20.069 17.25 20.069C17.7392 20.069 18.2228 20.058 18.6987 20.0368C18.2314 20.6719 17.7595 21.2527 17.2898 21.7699ZM22.1834 16.3495C22.5042 17.0808 22.7746 17.7881 22.9893 18.4608C22.2935 18.6196 21.5422 18.7475 20.7505 18.8424C21.0042 18.4403 21.2498 18.0331 21.4873 17.6212C21.7288 17.2025 21.9608 16.7785 22.1834 16.3495ZM20.5992 17.109C20.2357 17.7405 19.8517 18.3601 19.4479 18.9666C18.7164 19.0184 17.9833 19.0442 17.25 19.0438C16.5031 19.0438 15.7766 19.0205 15.0771 18.9752C14.6627 18.37 14.2714 17.7494 13.904 17.1146C13.5383 16.4832 13.1968 15.8382 12.88 15.1808C13.196 14.5233 13.5365 13.878 13.901 13.2461L13.9009 13.2462C14.2652 12.6142 14.6534 11.9962 15.0646 11.3936C15.7783 11.3396 16.5102 11.3115 17.2499 11.3115C17.993 11.3115 18.7259 11.3399 19.4394 11.3943C19.8465 11.9959 20.2322 12.6118 20.5958 13.2407C20.9615 13.8712 21.3066 14.5134 21.6305 15.1663C21.3099 15.8259 20.9659 16.4739 20.5992 17.109ZM22.7142 5.65986C23.5178 6.12336 23.8304 7.99245 23.3255 10.4435C23.2932 10.5999 23.257 10.7592 23.2177 10.9207C22.2218 10.6909 21.1406 10.52 20.0086 10.4137C19.3492 9.47464 18.6658 8.62086 17.9798 7.88173C18.1596 7.70844 18.3437 7.53964 18.5318 7.37548C20.3037 5.83358 21.9597 5.22476 22.7142 5.65986ZM17.25 13.0132C18.4336 13.0132 19.3931 13.9728 19.3931 15.1564C19.3931 16.34 18.4336 17.2995 17.25 17.2995C16.0664 17.2995 15.1069 16.34 15.1069 15.1564C15.1069 13.9728 16.0664 13.0132 17.25 13.0132Z"
        fill="#00D8FF" />
    <path d="M33.75 0H114C117.314 0 120 2.68629 120 6V24C120 27.3137 117.314 30 114 30H33.75V0Z"
        fill="#00D8FF" />
    <path
        d="M56.8109 19V10.2727H60.416C61.0694 10.2727 61.6333 10.3906 62.1078 10.6264C62.5851 10.8594 62.9529 11.1946 63.2115 11.6321C63.47 12.0668 63.5993 12.5824 63.5993 13.179C63.5993 13.7841 63.4672 14.2983 63.2029 14.7216C62.9387 15.142 62.5637 15.4631 62.0779 15.6847C61.5922 15.9034 61.0169 16.0128 60.3521 16.0128H58.0723V14.3509H59.96C60.2782 14.3509 60.5439 14.3097 60.7569 14.2273C60.9728 14.142 61.1362 14.0142 61.247 13.8438C61.3578 13.6705 61.4132 13.4489 61.4132 13.179C61.4132 12.9091 61.3578 12.6861 61.247 12.5099C61.1362 12.331 60.9728 12.1974 60.7569 12.1094C60.541 12.0185 60.2754 11.973 59.96 11.973H58.9203V19H56.8109ZM61.7243 15.0114L63.8976 19H61.5964L59.4657 15.0114H61.7243ZM64.7562 19V10.2727H70.8414V11.9858H66.8656V13.7756H70.5304V15.4929H66.8656V17.2869H70.8414V19H64.7562ZM74.0502 19H71.7832L74.7278 10.2727H77.536L80.4806 19H78.2136L76.1639 12.4716H76.0957L74.0502 19ZM73.7477 15.5653H78.4863V17.1676H73.7477V15.5653ZM88.932 13.4347H86.8013C86.7729 13.2159 86.7147 13.0185 86.6266 12.8423C86.5385 12.6662 86.4221 12.5156 86.2772 12.3906C86.1323 12.2656 85.9604 12.1705 85.7615 12.1051C85.5655 12.0369 85.3482 12.0028 85.1096 12.0028C84.6863 12.0028 84.3212 12.1065 84.0144 12.3139C83.7104 12.5213 83.476 12.821 83.3113 13.2131C83.1493 13.6051 83.0684 14.0795 83.0684 14.6364C83.0684 15.2159 83.1507 15.7017 83.3155 16.0938C83.4831 16.483 83.7175 16.777 84.0186 16.9759C84.3226 17.1719 84.682 17.2699 85.0968 17.2699C85.3297 17.2699 85.5414 17.2401 85.7317 17.1804C85.9249 17.1207 86.0939 17.0341 86.2388 16.9205C86.3865 16.804 86.5073 16.6634 86.601 16.4986C86.6976 16.331 86.7644 16.142 86.8013 15.9318L88.932 15.9446C88.8951 16.331 88.7828 16.7116 88.5953 17.0866C88.4107 17.4616 88.1564 17.804 87.8326 18.1136C87.5087 18.4205 87.1138 18.6648 86.6479 18.8466C86.1848 19.0284 85.6536 19.1193 85.0542 19.1193C84.2644 19.1193 83.557 18.946 82.932 18.5994C82.3098 18.25 81.8184 17.7415 81.4576 17.0739C81.0968 16.4062 80.9164 15.5937 80.9164 14.6364C80.9164 13.6761 81.0996 12.8622 81.4661 12.1946C81.8326 11.527 82.3283 11.0199 82.9533 10.6733C83.5783 10.3267 84.2786 10.1534 85.0542 10.1534C85.5826 10.1534 86.0712 10.2273 86.5201 10.375C86.9689 10.5199 87.3638 10.733 87.7047 11.0142C88.0456 11.2926 88.3226 11.6349 88.5357 12.0412C88.7488 12.4474 88.8809 12.9119 88.932 13.4347ZM89.8535 11.9858V10.2727H97.2299V11.9858H94.5836V19H92.5041V11.9858H89.8535Z"
        fill="white" />
</svg>    