<svg width="75" height="20" viewBox="0 0 75 20" fill="none" xmlns="http://www.w3.org/2000/svg">
<rect x="0.3" y="0.3" width="74.4" height="19.4" rx="5.7" fill="white" stroke="#00D8FF" stroke-width="0.6"/>
<path d="M18.1552 7.61399C17.9849 7.55557 17.8132 7.50145 17.6402 7.45168C17.6692 7.33293 17.696 7.21561 17.7198 7.10036C18.1096 5.2078 17.8547 3.68311 16.9842 3.18111C16.1495 2.69986 14.7844 3.20168 13.4058 4.40149C13.2699 4.51995 13.1371 4.64182 13.0074 4.76699C12.9205 4.68376 12.8322 4.60214 12.7423 4.52218C11.2974 3.2393 9.84919 2.69861 8.97956 3.20205C8.14562 3.6848 7.89869 5.11811 8.24969 6.91174C8.28461 7.08938 8.32404 7.2661 8.36794 7.44174C8.16294 7.49999 7.96512 7.56199 7.77581 7.62799C6.08181 8.21861 5 9.14418 5 10.1042C5 11.0958 6.16138 12.0904 7.92575 12.6934C8.06879 12.7421 8.21302 12.7872 8.35831 12.8287C8.31113 13.0179 8.26924 13.2084 8.23269 13.3999C7.89806 15.1624 8.15937 16.5618 8.99106 17.0415C9.85006 17.5369 11.2918 17.0277 12.6956 15.8006C12.8095 15.7008 12.9208 15.5982 13.0295 15.4929C13.17 15.6284 13.3142 15.76 13.462 15.8875C14.8219 17.0576 16.1649 17.5301 16.9958 17.0491C17.8539 16.5523 18.1329 15.0489 17.7708 13.2199C17.7422 13.0766 17.7102 12.934 17.6748 12.7922C17.7761 12.7622 17.8754 12.7314 17.9723 12.6992C19.8066 12.0916 21 11.1091 21 10.1042C21 9.14068 19.8833 8.20886 18.1552 7.61399ZM17.7574 12.0505C17.6699 12.0794 17.5801 12.1074 17.4886 12.1346C17.2861 11.4935 17.0129 10.8119 16.6784 10.1076C16.9976 9.42005 17.2603 8.74711 17.4571 8.11024C17.6208 8.15761 17.7796 8.20755 17.9327 8.26024C19.4134 8.76999 20.3165 9.52355 20.3165 10.1042C20.3165 10.7227 19.3411 11.5257 17.7574 12.0505ZM17.1003 13.3526C17.2604 14.1614 17.2832 14.8926 17.1771 15.4643C17.0819 15.978 16.8902 16.3204 16.6532 16.4576C16.1491 16.7495 15.0707 16.3701 13.9078 15.3694C13.7703 15.2508 13.6362 15.1285 13.5055 15.0025C13.9564 14.5094 14.4069 13.9362 14.8467 13.2996C15.6202 13.231 16.3509 13.1187 17.0136 12.9656C17.0463 13.0972 17.0753 13.2264 17.1003 13.3526ZM10.4548 16.4072C9.96213 16.5811 9.56975 16.5861 9.33256 16.4494C8.82787 16.1583 8.61806 15.0346 8.90425 13.5274C8.93827 13.3493 8.97722 13.1721 9.02106 12.9962C9.67644 13.1412 10.4019 13.2454 11.1772 13.3083C11.6199 13.9312 12.0835 14.5038 12.5507 15.0052C12.4514 15.1012 12.3498 15.1949 12.2459 15.2859C11.6251 15.8286 11.003 16.2136 10.4548 16.4072ZM8.14687 12.0467C7.36669 11.78 6.72238 11.4334 6.28075 11.0552C5.88388 10.7154 5.68356 10.378 5.68356 10.1042C5.68356 9.52161 6.55212 8.77849 8.00081 8.27343C8.17663 8.21218 8.36063 8.15436 8.55156 8.10011C8.75181 8.75136 9.01444 9.4323 9.33138 10.1209C9.01031 10.8196 8.74394 11.5114 8.54175 12.1704C8.40913 12.1324 8.27747 12.0911 8.14687 12.0467ZM8.9205 6.78043C8.61981 5.24374 8.8195 4.08455 9.32206 3.79361C9.85731 3.48374 11.0409 3.92555 12.2885 5.0333C12.3699 5.1057 12.4499 5.17957 12.5286 5.25486C12.0637 5.75405 11.6044 6.32236 11.1656 6.94161C10.4131 7.01136 9.69275 7.12336 9.0305 7.27343C8.9897 7.11006 8.95302 6.94564 8.9205 6.78043ZM15.8222 8.48468C15.6658 8.21448 15.5035 7.94769 15.3356 7.68449C15.8461 7.74905 16.3352 7.83474 16.7946 7.93949C16.6567 8.38149 16.4848 8.84355 16.2825 9.3173C16.1346 9.03672 15.9812 8.75913 15.8222 8.48468ZM13.0077 5.74336C13.3229 6.08493 13.6387 6.46624 13.9493 6.87999C13.3193 6.85024 12.6882 6.85011 12.0582 6.87961C12.3691 6.46968 12.6875 6.08886 13.0077 5.74336ZM10.1751 8.48936C10.0181 8.76161 9.86754 9.03747 9.72344 9.31674C9.52444 8.84468 9.35413 8.38049 9.21506 7.93224C9.67156 7.83011 10.1584 7.74661 10.6656 7.68324C10.4958 7.94805 10.3323 8.21688 10.1751 8.48936ZM10.6802 12.5739C10.1561 12.5154 9.662 12.4362 9.20563 12.3368C9.34688 11.8806 9.52094 11.4065 9.72425 10.9243C9.86893 11.2038 10.0202 11.4798 10.1778 11.7522C10.3399 12.0322 10.5078 12.3064 10.6802 12.5739ZM13.0266 14.5132C12.7026 14.1637 12.3794 13.7771 12.0639 13.3612C12.3703 13.3732 12.6826 13.3793 13 13.3793C13.3261 13.3793 13.6485 13.372 13.9658 13.3579C13.6543 13.7812 13.3397 14.1685 13.0266 14.5132ZM16.2889 10.8997C16.5028 11.3872 16.6831 11.8587 16.8262 12.3072C16.3623 12.4131 15.8614 12.4983 15.3337 12.5616C15.5028 12.2935 15.6666 12.0221 15.8249 11.7475C15.9858 11.4684 16.1406 11.1857 16.2889 10.8997ZM15.2328 11.406C14.9904 11.827 14.7345 12.24 14.4653 12.6444C13.9776 12.679 13.4889 12.6961 13 12.6959C12.5021 12.6959 12.0177 12.6804 11.5514 12.6501C11.2751 12.2467 11.0143 11.8329 10.7693 11.4097C10.5255 10.9888 10.2978 10.5588 10.0867 10.1206C10.2973 9.68223 10.5243 9.25199 10.7673 8.83074L10.7673 8.8308C11.0101 8.40944 11.2689 7.99746 11.5431 7.59574C12.0189 7.55974 12.5068 7.54099 12.9999 7.54099C13.4953 7.54099 13.9839 7.55993 14.4596 7.59618C14.731 7.99729 14.9881 8.40786 15.2306 8.82711C15.4743 9.24744 15.7044 9.67558 15.9203 10.1109C15.7066 10.5506 15.4773 10.9826 15.2328 11.406ZM16.6428 3.77324C17.1786 4.08224 17.3869 5.3283 17.0503 6.96236C17.0288 7.06661 17.0047 7.1728 16.9784 7.28049C16.3146 7.12724 15.5938 7.0133 14.8391 6.94249C14.3994 6.31643 13.9439 5.74724 13.4866 5.25449C13.6064 5.13896 13.7291 5.02642 13.8546 4.91699C15.0358 3.88905 16.1398 3.48318 16.6428 3.77324ZM13 8.67549C13.7891 8.67549 14.4288 9.31518 14.4288 10.1042C14.4288 10.8933 13.7891 11.533 13 11.533C12.2109 11.533 11.5712 10.8933 11.5712 10.1042C11.5712 9.31518 12.2109 8.67549 13 8.67549Z" fill="#00D8FF"/>
<path d="M29.0568 15V6.27273H32.0057C32.6875 6.27273 33.2472 6.3892 33.6847 6.62216C34.1222 6.85227 34.446 7.16903 34.6562 7.57244C34.8665 7.97585 34.9716 8.43466 34.9716 8.94886C34.9716 9.46307 34.8665 9.91903 34.6562 10.3168C34.446 10.7145 34.1236 11.027 33.6889 11.2543C33.2543 11.4787 32.6989 11.5909 32.0227 11.5909H29.6364V10.6364H31.9886C32.4545 10.6364 32.8295 10.5682 33.1136 10.4318C33.4006 10.2955 33.608 10.1023 33.7358 9.85227C33.8665 9.59943 33.9318 9.2983 33.9318 8.94886C33.9318 8.59943 33.8665 8.29403 33.7358 8.03267C33.6051 7.77131 33.3963 7.5696 33.1094 7.42756C32.8224 7.28267 32.4432 7.21023 31.9716 7.21023H30.1136V15H29.0568ZM33.1648 11.0795L35.3125 15H34.0852L31.9716 11.0795H33.1648ZM36.7326 15V6.27273H41.9996V7.21023H37.7894V10.1591H41.7269V11.0966H37.7894V14.0625H42.0678V15H36.7326ZM44.2624 15H43.1545L46.359 6.27273H47.4499L50.6545 15H49.5465L46.9386 7.65341H46.8704L44.2624 15ZM44.6715 11.5909H49.1374V12.5284H44.6715V11.5909ZM58.6264 9H57.5696C57.5071 8.69602 57.3977 8.42898 57.2415 8.19886C57.0881 7.96875 56.9006 7.77557 56.679 7.61932C56.4602 7.46023 56.2173 7.34091 55.9503 7.26136C55.6832 7.18182 55.4048 7.14205 55.1151 7.14205C54.5866 7.14205 54.108 7.27557 53.679 7.54261C53.2528 7.80966 52.9134 8.20312 52.6605 8.72301C52.4105 9.2429 52.2855 9.88068 52.2855 10.6364C52.2855 11.392 52.4105 12.0298 52.6605 12.5497C52.9134 13.0696 53.2528 13.4631 53.679 13.7301C54.108 13.9972 54.5866 14.1307 55.1151 14.1307C55.4048 14.1307 55.6832 14.0909 55.9503 14.0114C56.2173 13.9318 56.4602 13.8139 56.679 13.6577C56.9006 13.4986 57.0881 13.304 57.2415 13.0739C57.3977 12.8409 57.5071 12.5739 57.5696 12.2727H58.6264C58.5469 12.7187 58.402 13.1179 58.1918 13.4702C57.9815 13.8224 57.7202 14.1222 57.4077 14.3693C57.0952 14.6136 56.7443 14.7997 56.3551 14.9276C55.9688 15.0554 55.5554 15.1193 55.1151 15.1193C54.3707 15.1193 53.7088 14.9375 53.1293 14.5739C52.5497 14.2102 52.0938 13.6932 51.7614 13.0227C51.429 12.3523 51.2628 11.5568 51.2628 10.6364C51.2628 9.71591 51.429 8.92045 51.7614 8.25C52.0938 7.57955 52.5497 7.0625 53.1293 6.69886C53.7088 6.33523 54.3707 6.15341 55.1151 6.15341C55.5554 6.15341 55.9688 6.21733 56.3551 6.34517C56.7443 6.47301 57.0952 6.66051 57.4077 6.90767C57.7202 7.15199 57.9815 7.45028 58.1918 7.80256C58.402 8.15199 58.5469 8.55114 58.6264 9ZM59.8569 7.21023V6.27273H66.4023V7.21023H63.658V15H62.6012V7.21023H59.8569Z" fill="#666F88" fill-opacity="0.533333"/>
</svg>
