<svg width="160" height="40" viewBox="0 0 160 40" fill="none" xmlns="http://www.w3.org/2000/svg">
<rect width="160" height="40" rx="6" fill="white"/>
<path d="M33.3104 15.228C32.9698 15.1111 32.6264 15.0029 32.2804 14.9034C32.3385 14.6659 32.392 14.4312 32.4395 14.2007C33.2193 10.4156 32.7095 7.36623 30.9684 6.36223C29.299 5.39973 26.5689 6.40335 23.8116 8.80298C23.5399 9.0399 23.2742 9.28364 23.0147 9.53398C22.8411 9.36751 22.6643 9.20428 22.4846 9.04435C19.5949 6.4786 16.6984 5.39723 14.9591 6.4041C13.2912 7.3696 12.7974 10.2362 13.4994 13.8235C13.5692 14.1788 13.6481 14.5322 13.7359 14.8835C13.3259 15 12.9302 15.124 12.5516 15.256C9.16362 16.4372 7 18.2884 7 20.2085C7 22.1916 9.32275 24.1807 12.8515 25.3869C13.1376 25.4842 13.426 25.5745 13.7166 25.6575C13.6223 26.0358 13.5385 26.4167 13.4654 26.7997C12.7961 30.3247 13.3187 33.1236 14.9821 34.083C16.7001 35.0737 19.5836 34.0555 22.3912 31.6011C22.6189 31.4016 22.8416 31.1964 23.059 30.9857C23.3399 31.2568 23.6284 31.52 23.924 31.775C26.6437 34.1152 29.3298 35.0602 30.9915 34.0982C32.7079 33.1046 33.2658 30.0979 32.5415 26.4397C32.4844 26.1531 32.4205 25.868 32.3496 25.5845C32.5521 25.5245 32.7509 25.4627 32.9446 25.3985C36.6131 24.1831 39 22.2181 39 20.2085C39 18.2814 36.7665 16.4177 33.3104 15.228ZM32.5147 24.101C32.3397 24.1589 32.1602 24.2147 31.9772 24.2691C31.5722 22.987 31.0257 21.6237 30.3569 20.2151C30.9951 18.8401 31.5206 17.4942 31.9142 16.2205C32.2416 16.3152 32.5592 16.4151 32.8655 16.5205C35.8267 17.54 37.633 19.0471 37.633 20.2085C37.633 21.4455 35.6822 23.0514 32.5147 24.101ZM31.2005 26.7052C31.5208 28.3227 31.5664 29.7852 31.3542 30.9286C31.1637 31.956 30.7805 32.6409 30.3065 32.9152C29.2981 33.499 27.1415 32.7402 24.8156 30.7387C24.5407 30.5017 24.2724 30.257 24.011 30.005C24.9127 29.0189 25.8139 27.8725 26.6934 26.5992C28.2404 26.462 29.7019 26.2375 31.0273 25.9311C31.0925 26.1945 31.1505 26.4527 31.2005 26.7052ZM17.9095 32.8144C16.9243 33.1622 16.1395 33.1722 15.6651 32.8987C14.6557 32.3166 14.2361 30.0692 14.8085 27.0547C14.8765 26.6985 14.9544 26.3443 15.0421 25.9924C16.3529 26.2824 17.8037 26.4909 19.3544 26.6166C20.2399 27.8625 21.167 29.0076 22.1014 30.0104C21.9028 30.2025 21.6995 30.3897 21.4917 30.5719C20.2501 31.6571 19.006 32.4271 17.9095 32.8144ZM13.2937 24.0934C11.7334 23.56 10.4448 22.8669 9.5615 22.1105C8.76775 21.4309 8.36713 20.756 8.36713 20.2085C8.36713 19.0432 10.1042 17.557 13.0016 16.5469C13.3533 16.4244 13.7213 16.3087 14.1031 16.2002C14.5036 17.5027 15.0289 18.8646 15.6628 20.2417C15.0206 21.6392 14.4879 23.0229 14.0835 24.3407C13.8183 24.2648 13.5549 24.1823 13.2937 24.0934ZM14.841 13.5609C14.2396 10.4875 14.639 8.1691 15.6441 7.58723C16.7146 6.96748 19.0819 7.8511 21.577 10.0666C21.7397 10.2114 21.8998 10.3591 22.0571 10.5097C21.1274 11.5081 20.2088 12.6447 19.3311 13.8832C17.8261 14.0227 16.3855 14.2467 15.061 14.5469C14.9794 14.2201 14.906 13.8913 14.841 13.5609ZM28.6444 16.9694C28.3315 16.429 28.0071 15.8954 27.6712 15.369C28.6922 15.4981 29.6705 15.6695 30.5891 15.879C30.3134 16.763 29.9696 17.6871 29.565 18.6346C29.2692 18.0734 28.9623 17.5183 28.6444 16.9694ZM23.0154 11.4867C23.6459 12.1699 24.2774 12.9325 24.8985 13.76C23.6385 13.7005 22.3764 13.7002 21.1164 13.7592C21.7381 12.9394 22.375 12.1777 23.0154 11.4867ZM17.3503 16.9787C17.0363 17.5232 16.7351 18.0749 16.4469 18.6335C16.0489 17.6894 15.7083 16.761 15.4301 15.8645C16.3431 15.6602 17.3168 15.4932 18.3313 15.3665C17.9917 15.8961 17.6646 16.4338 17.3503 16.9787ZM18.3604 25.1477C17.3123 25.0307 16.324 24.8724 15.4113 24.6736C15.6938 23.7611 16.0419 22.813 16.4485 21.8486C16.7379 22.4076 17.0403 22.9596 17.3556 23.5044C17.6799 24.0644 18.0156 24.6129 18.3604 25.1477ZM23.0531 29.0265C22.4051 28.3275 21.7589 27.5541 21.1278 26.7224C21.7405 26.7464 22.3651 26.7586 23 26.7586C23.6522 26.7586 24.297 26.744 24.9316 26.7157C24.3085 27.5625 23.6794 28.337 23.0531 29.0265ZM29.5779 21.7994C30.0056 22.7744 30.3661 23.7175 30.6524 24.6144C29.7246 24.8261 28.7229 24.9966 27.6674 25.1232C28.0056 24.587 28.3331 24.0442 28.6497 23.495C28.9717 22.9367 29.2811 22.3714 29.5779 21.7994ZM27.4656 22.812C26.9809 23.654 26.4689 24.4801 25.9305 25.2889C24.9552 25.3579 23.9777 25.3922 23 25.3917C22.0041 25.3917 21.0355 25.3607 20.1027 25.3002C19.5503 24.4933 19.0285 23.6658 18.5386 22.8195C18.051 21.9776 17.5957 21.1175 17.1734 20.2411C17.5946 19.3645 18.0487 18.504 18.5346 17.6615L18.5345 17.6616C19.0202 16.8189 19.5378 15.9949 20.0861 15.1915C21.0378 15.1195 22.0136 15.082 22.9999 15.082C23.9906 15.082 24.9679 15.1199 25.9193 15.1924C26.462 15.9946 26.9763 16.8157 27.4611 17.6542C27.9487 18.4949 28.4088 19.3512 28.8406 20.2217C28.4132 21.1012 27.9546 21.9652 27.4656 22.812ZM30.2856 7.54648C31.3571 8.16448 31.7739 10.6566 31.1006 13.9247C31.0576 14.1332 31.0094 14.3456 30.9569 14.561C29.6291 14.2545 28.1875 14.0266 26.6781 13.885C25.7989 12.6329 24.8878 11.4945 23.9731 10.509C24.2128 10.2779 24.4582 10.0528 24.7091 9.83398C27.0716 7.7781 29.2796 6.96635 30.2856 7.54648ZM23 17.351C24.5781 17.351 25.8575 18.6304 25.8575 20.2085C25.8575 21.7866 24.5781 23.066 23 23.066C21.4219 23.066 20.1425 21.7866 20.1425 20.2085C20.1425 18.6304 21.4219 17.351 23 17.351Z" fill="#00D8FF"/>
<path d="M68.7614 27V12.4545H73.6761C74.8125 12.4545 75.7453 12.6487 76.4744 13.0369C77.2036 13.4205 77.7434 13.9484 78.0938 14.6207C78.4441 15.2931 78.6193 16.0578 78.6193 16.9148C78.6193 17.7718 78.4441 18.5317 78.0938 19.1946C77.7434 19.8575 77.206 20.3783 76.4815 20.7571C75.7571 21.1312 74.8314 21.3182 73.7045 21.3182H69.7273V19.7273H73.6477C74.4242 19.7273 75.0492 19.6136 75.5227 19.3864C76.0009 19.1591 76.3466 18.8371 76.5597 18.4205C76.7775 17.9991 76.8864 17.4972 76.8864 16.9148C76.8864 16.3324 76.7775 15.8234 76.5597 15.3878C76.3419 14.9522 75.9938 14.616 75.5156 14.3793C75.0374 14.1378 74.4053 14.017 73.6193 14.017H70.5227V27H68.7614ZM75.608 20.4659L79.1875 27H77.142L73.6193 20.4659H75.608ZM81.5543 27V12.4545H90.3327V14.017H83.3157V18.9318H89.8782V20.4943H83.3157V25.4375H90.4464V27H81.5543ZM94.104 27H92.2575L97.5984 12.4545H99.4165L104.757 27H102.911L98.5643 14.7557H98.4506L94.104 27ZM94.7859 21.3182H102.229V22.8807H94.7859V21.3182ZM118.044 17H116.283C116.179 16.4934 115.996 16.0483 115.736 15.6648C115.48 15.2812 115.168 14.9593 114.798 14.6989C114.434 14.4337 114.029 14.2348 113.584 14.1023C113.139 13.9697 112.675 13.9034 112.192 13.9034C111.311 13.9034 110.513 14.1259 109.798 14.571C109.088 15.0161 108.522 15.6719 108.101 16.5384C107.684 17.4048 107.476 18.4678 107.476 19.7273C107.476 20.9867 107.684 22.0497 108.101 22.9162C108.522 23.7827 109.088 24.4384 109.798 24.8835C110.513 25.3286 111.311 25.5511 112.192 25.5511C112.675 25.5511 113.139 25.4848 113.584 25.3523C114.029 25.2197 114.434 25.0232 114.798 24.7628C115.168 24.4976 115.48 24.1733 115.736 23.7898C115.996 23.4015 116.179 22.9564 116.283 22.4545H118.044C117.911 23.1979 117.67 23.8632 117.32 24.4503C116.969 25.0374 116.534 25.5369 116.013 25.9489C115.492 26.3561 114.907 26.6662 114.259 26.8793C113.615 27.0923 112.926 27.1989 112.192 27.1989C110.951 27.1989 109.848 26.8958 108.882 26.2898C107.916 25.6837 107.156 24.822 106.602 23.7045C106.048 22.5871 105.771 21.2614 105.771 19.7273C105.771 18.1932 106.048 16.8674 106.602 15.75C107.156 14.6326 107.916 13.7708 108.882 13.1648C109.848 12.5587 110.951 12.2557 112.192 12.2557C112.926 12.2557 113.615 12.3622 114.259 12.5753C114.907 12.7884 115.492 13.1009 116.013 13.5128C116.534 13.92 116.969 14.4171 117.32 15.0043C117.67 15.5866 117.911 16.2519 118.044 17ZM120.095 14.017V12.4545H131.004V14.017H126.43V27H124.669V14.017H120.095Z" fill="black" fill-opacity="0.533333"/>
</svg>

