<svg width="120" height="30" viewBox="0 0 120 30" fill="none" xmlns="http://www.w3.org/2000/svg">
    <rect width="120" height="30" rx="6" fill="white" />
    <path d="M34 0H114C117.314 0 120 2.68629 120 6V24C120 27.3137 117.314 30 114 30H34V0Z"
        fill="#2399BE" />
    <path
        d="M45.0786 11.9858V10.2727H52.4551V11.9858H49.8087V19H47.7292V11.9858H45.0786ZM54.2832 19H52.0161L54.9607 10.2727H57.769L60.7136 19H58.4465L56.3968 12.4716H56.3286L54.2832 19ZM53.9806 15.5653H58.7193V17.1676H53.9806V15.5653ZM63.7626 10.2727V19H61.6532V10.2727H63.7626ZM65.0868 19V10.2727H67.1962V17.2869H70.8269V19H65.0868ZM73.3549 19L70.8151 10.2727H73.1461L74.4629 15.9915H74.5353L76.0396 10.2727H77.9401L79.4444 16.0043H79.5168L80.8379 10.2727H83.1646L80.6291 19H78.5964L77.0239 13.7074H76.9558L75.3833 19H73.3549ZM86.1454 10.2727V19H84.036V10.2727H86.1454ZM94.8972 10.2727V19H93.1074L89.6344 13.9631H89.579V19H87.4696V10.2727H89.285L92.7196 15.3011H92.7921V10.2727H94.8972ZM99.4494 19H96.2235V10.2727H99.4451C100.334 10.2727 101.1 10.4474 101.742 10.7969C102.387 11.1435 102.884 11.6435 103.233 12.2969C103.583 12.9474 103.758 13.7259 103.758 14.6321C103.758 15.5412 103.583 16.3224 103.233 16.9759C102.887 17.6293 102.391 18.1307 101.746 18.4801C101.101 18.8267 100.336 19 99.4494 19ZM98.3329 17.2017H99.3684C99.857 17.2017 100.27 17.1193 100.608 16.9545C100.949 16.7869 101.206 16.5156 101.38 16.1406C101.556 15.7628 101.644 15.2599 101.644 14.6321C101.644 14.0043 101.556 13.5043 101.38 13.1321C101.204 12.7571 100.944 12.4872 100.6 12.3224C100.259 12.1548 99.8386 12.071 99.3386 12.071H98.3329V17.2017Z"
        fill="white" />
    <path
        d="M17.25 7.5C14.05 7.5 12.05 9.10003 11.25 12.3C12.45 10.7 13.85 10.1 15.45 10.5C16.3628 10.7282 17.0153 11.3905 17.7376 12.1236C18.9142 13.3178 20.2758 14.7 23.25 14.7C26.45 14.7 28.45 13.1 29.25 9.9C28.05 11.5 26.65 12.1 25.05 11.7C24.1372 11.4718 23.4847 10.8095 22.7624 10.0764C21.5858 8.88216 20.2242 7.5 17.25 7.5ZM11.25 14.7C8.05003 14.7 6.04997 16.3 5.25 19.5C6.45 17.9 7.84997 17.3 9.45 17.7C10.3628 17.9282 11.0153 18.5905 11.7376 19.3236C12.9142 20.5178 14.2758 21.9 17.25 21.9C20.45 21.9 22.45 20.3 23.25 17.1C22.05 18.7 20.65 19.3 19.05 18.9C18.1372 18.6718 17.4847 18.0095 16.7624 17.2764C15.5858 16.0822 14.2242 14.7 11.25 14.7Z"
        fill="url(#paint0_linear_3_111)" />
    <defs>
        <linearGradient id="paint0_linear_3_111" x1="-61.422" y1="468.3" x2="2011.37" y2="1663.44"
            gradientUnits="userSpaceOnUse">
            <stop stop-color="#2298BD" />
            <stop offset="1" stop-color="#0ED7B5" />
        </linearGradient>
    </defs>
</svg>    