<svg width="186" height="40" viewBox="0 0 186 40" fill="none" xmlns="http://www.w3.org/2000/svg">
    <rect width="186" height="40" rx="6" fill="white" />
    <path d="M45 0H180C183.314 0 186 2.68629 186 6V34C186 37.3137 183.314 40 180 40H45V0Z"
        fill="#2399BE" />
    <path
        d="M68.9659 14.017V12.4545H79.875V14.017H75.3011V27H73.5398V14.017H68.9659ZM81.4908 27H79.6442L84.9851 12.4545H86.8033L92.1442 27H90.2976L85.951 14.7557H85.8374L81.4908 27ZM82.1726 21.3182H89.6158V22.8807H82.1726V21.3182ZM96.1712 12.4545V27H94.4098V12.4545H96.1712ZM99.7028 27V12.4545H101.464V25.4375H108.225V27H99.7028ZM113.595 27L109.618 12.4545H111.407L114.447 24.3011H114.589L117.686 12.4545H119.674L122.771 24.3011H122.913L125.953 12.4545H127.743L123.765 27H121.947L118.737 15.4091H118.623L115.413 27H113.595ZM131.699 12.4545V27H129.937V12.4545H131.699ZM146.764 12.4545V27H145.06L137.134 15.5795H136.991V27H135.23V12.4545H136.935L144.889 23.9034H145.031V12.4545H146.764ZM154.777 27H150.289V12.4545H154.976C156.387 12.4545 157.595 12.7457 158.598 13.3281C159.602 13.9058 160.372 14.7367 160.907 15.821C161.442 16.9006 161.709 18.1932 161.709 19.6989C161.709 21.214 161.439 22.5185 160.9 23.6122C160.36 24.7012 159.574 25.5393 158.542 26.1264C157.509 26.7088 156.255 27 154.777 27ZM152.05 25.4375H154.664C155.866 25.4375 156.863 25.2055 157.654 24.7415C158.444 24.2775 159.034 23.617 159.422 22.7599C159.81 21.9029 160.005 20.8826 160.005 19.6989C160.005 18.5246 159.813 17.5137 159.429 16.6662C159.046 15.8139 158.473 15.1605 157.711 14.706C156.948 14.2467 155.999 14.017 154.863 14.017H152.05V25.4375Z"
        fill="white" />
    <path
        d="M23 10C18.7334 10 16.0666 12.1334 15 16.4C16.6 14.2666 18.4666 13.4666 20.6 14C21.8171 14.3043 22.6871 15.1874 23.6501 16.1648C25.2189 17.7571 27.0344 19.6 31 19.6C35.2666 19.6 37.9334 17.4666 39 13.2C37.4 15.3334 35.5334 16.1334 33.4 15.6C32.1829 15.2957 31.3129 14.4126 30.3499 13.4353C28.7811 11.8429 26.9656 10 23 10ZM15 19.6C10.7334 19.6 8.06662 21.7334 7 26C8.6 23.8666 10.4666 23.0666 12.6 23.6C13.8171 23.9043 14.6871 24.7874 15.6501 25.7647C17.2189 27.3571 19.0344 29.2 23 29.2C27.2666 29.2 29.9334 27.0666 31 22.8C29.4 24.9334 27.5334 25.7334 25.4 25.2C24.1829 24.8957 23.3129 24.0126 22.3499 23.0352C20.7811 21.4429 18.9656 19.6 15 19.6Z"
        fill="url(#paint0_linear_3_111)" />
    <defs>
        <linearGradient id="paint0_linear_3_111" x1="-81.896" y1="624.4" x2="2681.83" y2="2217.91"
            gradientUnits="userSpaceOnUse">
            <stop stop-color="#2298BD" />
            <stop offset="1" stop-color="#0ED7B5" />
        </linearGradient>
    </defs>
</svg>    